{
    "asset" : {
        "generator" : "Khronos glTF Blender I/O v1.1.45",
        "version" : "2.0"
    },
    "scene" : 0,
    "scenes" : [
        {
            "name" : "Scene",
            "nodes" : [
                0
            ]
        }
    ],
    "nodes" : [
        {
            "mesh" : 0,
            "name" : "maison_Cube.149",
            "rotation" : [
                -0.7071068286895752,
                0,
                0,
                -0.7071067094802856
            ],
            "scale" : [
                0.04133591428399086,
                -0.04133591428399086,
                0.04133591428399086
            ]
        }
    ],
    "materials" : [
        {
            "doubleSided" : true,
            "emissiveFactor" : [
                0,
                0,
                0
            ],
            "name" : "saumon",
            "pbrMetallicRoughness" : {
                "baseColorTexture" : {
                    "index" : 0,
                    "texCoord" : 0
                },
                "metallicFactor" : 0,
                "roughnessFactor" : 0.5
            }
        },
        {
            "doubleSided" : true,
            "emissiveFactor" : [
                0,
                0,
                0
            ],
            "name" : "brun",
            "pbrMetallicRoughness" : {
                "baseColorTexture" : {
                    "index" : 1,
                    "texCoord" : 0
                },
                "metallicFactor" : 0,
                "roughnessFactor" : 0.5
            }
        },
        {
            "doubleSided" : true,
            "emissiveFactor" : [
                0,
                0,
                0
            ],
            "name" : "vitre",
            "pbrMetallicRoughness" : {
                "baseColorTexture" : {
                    "index" : 2,
                    "texCoord" : 0
                },
                "metallicFactor" : 0,
                "roughnessFactor" : 0.5
            }
        },
        {
            "doubleSided" : true,
            "emissiveFactor" : [
                0,
                0,
                0
            ],
            "name" : "gris1",
            "pbrMetallicRoughness" : {
                "baseColorTexture" : {
                    "index" : 3,
                    "texCoord" : 0
                },
                "metallicFactor" : 0,
                "roughnessFactor" : 0.5
            }
        },
        {
            "doubleSided" : true,
            "emissiveFactor" : [
                0,
                0,
                0
            ],
            "name" : "Material.001",
            "pbrMetallicRoughness" : {
                "baseColorTexture" : {
                    "index" : 4,
                    "texCoord" : 0
                },
                "metallicFactor" : 0,
                "roughnessFactor" : 0.4000000059604645
            }
        },
        {
            "doubleSided" : true,
            "emissiveFactor" : [
                0,
                0,
                0
            ],
            "name" : "Material.010",
            "pbrMetallicRoughness" : {
                "baseColorTexture" : {
                    "index" : 5,
                    "texCoord" : 0
                },
                "metallicFactor" : 0,
                "roughnessFactor" : 0.5
            }
        },
        {
            "doubleSided" : true,
            "emissiveFactor" : [
                0,
                0,
                0
            ],
            "name" : "Material.011",
            "pbrMetallicRoughness" : {
                "baseColorTexture" : {
                    "index" : 6,
                    "texCoord" : 0
                },
                "metallicFactor" : 0,
                "roughnessFactor" : 0.5
            }
        },
        {
            "doubleSided" : true,
            "emissiveFactor" : [
                0,
                0,
                0
            ],
            "name" : "noir.001",
            "pbrMetallicRoughness" : {
                "baseColorTexture" : {
                    "index" : 7,
                    "texCoord" : 0
                },
                "metallicFactor" : 0,
                "roughnessFactor" : 0.5
            }
        },
        {
            "doubleSided" : true,
            "emissiveFactor" : [
                0,
                0,
                0
            ],
            "name" : "Material.012",
            "pbrMetallicRoughness" : {
                "baseColorTexture" : {
                    "index" : 8,
                    "texCoord" : 0
                },
                "metallicFactor" : 0,
                "roughnessFactor" : 0.5
            }
        }
    ],
    "meshes" : [
        {
            "name" : "maison_Cube.18089",
            "primitives" : [
                {
                    "attributes" : {
                        "POSITION" : 0,
                        "NORMAL" : 1,
                        "TEXCOORD_0" : 2
                    },
                    "indices" : 3,
                    "material" : 0
                },
                {
                    "attributes" : {
                        "POSITION" : 4,
                        "NORMAL" : 5,
                        "TEXCOORD_0" : 6
                    },
                    "indices" : 7,
                    "material" : 1
                },
                {
                    "attributes" : {
                        "POSITION" : 8,
                        "NORMAL" : 9,
                        "TEXCOORD_0" : 10
                    },
                    "indices" : 11,
                    "material" : 2
                },
                {
                    "attributes" : {
                        "POSITION" : 12,
                        "NORMAL" : 13,
                        "TEXCOORD_0" : 14
                    },
                    "indices" : 15,
                    "material" : 3
                },
                {
                    "attributes" : {
                        "POSITION" : 16,
                        "NORMAL" : 17,
                        "TEXCOORD_0" : 18
                    },
                    "indices" : 19,
                    "material" : 4
                },
                {
                    "attributes" : {
                        "POSITION" : 20,
                        "NORMAL" : 21,
                        "TEXCOORD_0" : 22
                    },
                    "indices" : 23,
                    "material" : 5
                },
                {
                    "attributes" : {
                        "POSITION" : 24,
                        "NORMAL" : 25,
                        "TEXCOORD_0" : 26
                    },
                    "indices" : 27,
                    "material" : 6
                },
                {
                    "attributes" : {
                        "POSITION" : 28,
                        "NORMAL" : 29,
                        "TEXCOORD_0" : 30
                    },
                    "indices" : 31,
                    "material" : 7
                },
                {
                    "attributes" : {
                        "POSITION" : 32,
                        "NORMAL" : 33,
                        "TEXCOORD_0" : 34
                    },
                    "indices" : 35,
                    "material" : 8
                }
            ]
        }
    ],
    "textures" : [
        {
            "source" : 0
        },
        {
            "source" : 1
        },
        {
            "source" : 2
        },
        {
            "source" : 3
        },
        {
            "source" : 1
        },
        {
            "source" : 4
        },
        {
            "source" : 5
        },
        {
            "source" : 6
        },
        {
            "source" : 7
        }
    ],
    "images" : [
        {
            "mimeType" : "image/png",
            "name" : "saumon",
            "uri" : "saumon.png"
        },
        {
            "mimeType" : "image/png",
            "name" : "brun",
            "uri" : "brun.png"
        },
        {
            "mimeType" : "image/png",
            "name" : "sky",
            "uri" : "sky.png"
        },
        {
            "mimeType" : "image/png",
            "name" : "gris",
            "uri" : "gris.png"
        },
        {
            "mimeType" : "image/png",
            "name" : "sea_foam",
            "uri" : "sea_foam.png"
        },
        {
            "mimeType" : "image/png",
            "name" : "lead",
            "uri" : "lead.png"
        },
        {
            "mimeType" : "image/png",
            "name" : "noir",
            "uri" : "noir.png"
        },
        {
            "mimeType" : "image/png",
            "name" : "banane",
            "uri" : "banane.png"
        }
    ],
    "accessors" : [
        {
            "bufferView" : 0,
            "componentType" : 5126,
            "count" : 183475,
            "max" : [
                36.478981018066406,
                36.447837829589844,
                0.625310480594635
            ],
            "min" : [
                -36.380943298339844,
                -36.17430877685547,
                -1.4796593189239502
            ],
            "type" : "VEC3"
        },
        {
            "bufferView" : 1,
            "componentType" : 5126,
            "count" : 183475,
            "type" : "VEC3"
        },
        {
            "bufferView" : 2,
            "componentType" : 5126,
            "count" : 183475,
            "type" : "VEC2"
        },
        {
            "bufferView" : 3,
            "componentType" : 5125,
            "count" : 427200,
            "type" : "SCALAR"
        },
        {
            "bufferView" : 4,
            "componentType" : 5126,
            "count" : 1989328,
            "max" : [
                36.516170501708984,
                36.478946685791016,
                0.5556893944740295
            ],
            "min" : [
                -36.41813659667969,
                -36.2115592956543,
                -1.564164400100708
            ],
            "type" : "VEC3"
        },
        {
            "bufferView" : 5,
            "componentType" : 5126,
            "count" : 1989328,
            "type" : "VEC3"
        },
        {
            "bufferView" : 6,
            "componentType" : 5126,
            "count" : 1989328,
            "type" : "VEC2"
        },
        {
            "bufferView" : 7,
            "componentType" : 5125,
            "count" : 3312936,
            "type" : "SCALAR"
        },
        {
            "bufferView" : 8,
            "componentType" : 5126,
            "count" : 68352,
            "max" : [
                36.488407135009766,
                36.45420837402344,
                0.29523032903671265
            ],
            "min" : [
                -36.3903694152832,
                -36.18190383911133,
                -1.1346254348754883
            ],
            "type" : "VEC3"
        },
        {
            "bufferView" : 9,
            "componentType" : 5126,
            "count" : 68352,
            "type" : "VEC3"
        },
        {
            "bufferView" : 10,
            "componentType" : 5126,
            "count" : 68352,
            "type" : "VEC2"
        },
        {
            "bufferView" : 11,
            "componentType" : 5125,
            "count" : 102528,
            "type" : "SCALAR"
        },
        {
            "bufferView" : 12,
            "componentType" : 5126,
            "count" : 562318,
            "max" : [
                36.44868469238281,
                36.431392669677734,
                0.625310480594635
            ],
            "min" : [
                -36.35064697265625,
                -36.145755767822266,
                -1.7234394550323486
            ],
            "type" : "VEC3"
        },
        {
            "bufferView" : 13,
            "componentType" : 5126,
            "count" : 562318,
            "type" : "VEC3"
        },
        {
            "bufferView" : 14,
            "componentType" : 5126,
            "count" : 562318,
            "type" : "VEC2"
        },
        {
            "bufferView" : 15,
            "componentType" : 5125,
            "count" : 905664,
            "type" : "SCALAR"
        },
        {
            "bufferView" : 16,
            "componentType" : 5126,
            "count" : 17983,
            "max" : [
                35.002384185791016,
                -20.05634307861328,
                0.651305079460144
            ],
            "min" : [
                24.980045318603516,
                -35.0513801574707,
                -13.013162612915039
            ],
            "type" : "VEC3"
        },
        {
            "bufferView" : 17,
            "componentType" : 5126,
            "count" : 17983,
            "type" : "VEC3"
        },
        {
            "bufferView" : 18,
            "componentType" : 5126,
            "count" : 17983,
            "type" : "VEC2"
        },
        {
            "bufferView" : 19,
            "componentType" : 5123,
            "count" : 44631,
            "type" : "SCALAR"
        },
        {
            "bufferView" : 20,
            "componentType" : 5126,
            "count" : 401,
            "max" : [
                35.002384185791016,
                -20.05634307861328,
                -1.6261060237884521
            ],
            "min" : [
                24.980045318603516,
                -34.6714973449707,
                -6.558533668518066
            ],
            "type" : "VEC3"
        },
        {
            "bufferView" : 21,
            "componentType" : 5126,
            "count" : 401,
            "type" : "VEC3"
        },
        {
            "bufferView" : 22,
            "componentType" : 5126,
            "count" : 401,
            "type" : "VEC2"
        },
        {
            "bufferView" : 23,
            "componentType" : 5123,
            "count" : 999,
            "type" : "SCALAR"
        },
        {
            "bufferView" : 24,
            "componentType" : 5126,
            "count" : 104,
            "max" : [
                31.021743774414062,
                -22.333755493164062,
                -6.05727481842041
            ],
            "min" : [
                28.96637725830078,
                -24.714019775390625,
                -7.5385541915893555
            ],
            "type" : "VEC3"
        },
        {
            "bufferView" : 25,
            "componentType" : 5126,
            "count" : 104,
            "type" : "VEC3"
        },
        {
            "bufferView" : 26,
            "componentType" : 5126,
            "count" : 104,
            "type" : "VEC2"
        },
        {
            "bufferView" : 27,
            "componentType" : 5123,
            "count" : 198,
            "type" : "SCALAR"
        },
        {
            "bufferView" : 28,
            "componentType" : 5126,
            "count" : 512,
            "max" : [
                33.15705490112305,
                -22.590946197509766,
                0.2508689761161804
            ],
            "min" : [
                26.8291015625,
                -34.79525375366211,
                -5.572195053100586
            ],
            "type" : "VEC3"
        },
        {
            "bufferView" : 29,
            "componentType" : 5126,
            "count" : 512,
            "type" : "VEC3"
        },
        {
            "bufferView" : 30,
            "componentType" : 5126,
            "count" : 512,
            "type" : "VEC2"
        },
        {
            "bufferView" : 31,
            "componentType" : 5123,
            "count" : 960,
            "type" : "SCALAR"
        },
        {
            "bufferView" : 32,
            "componentType" : 5126,
            "count" : 30,
            "max" : [
                32.99351501464844,
                -32.58500671386719,
                -6.116874694824219
            ],
            "min" : [
                30.907028198242188,
                -34.6714973449707,
                -6.428650856018066
            ],
            "type" : "VEC3"
        },
        {
            "bufferView" : 33,
            "componentType" : 5126,
            "count" : 30,
            "type" : "VEC3"
        },
        {
            "bufferView" : 34,
            "componentType" : 5126,
            "count" : 30,
            "type" : "VEC2"
        },
        {
            "bufferView" : 35,
            "componentType" : 5123,
            "count" : 54,
            "type" : "SCALAR"
        }
    ],
    "bufferViews" : [
        {
            "buffer" : 0,
            "byteLength" : 2201700,
            "byteOffset" : 0
        },
        {
            "buffer" : 0,
            "byteLength" : 2201700,
            "byteOffset" : 2201700
        },
        {
            "buffer" : 0,
            "byteLength" : 1467800,
            "byteOffset" : 4403400
        },
        {
            "buffer" : 0,
            "byteLength" : 1708800,
            "byteOffset" : 5871200
        },
        {
            "buffer" : 0,
            "byteLength" : 23871936,
            "byteOffset" : 7580000
        },
        {
            "buffer" : 0,
            "byteLength" : 23871936,
            "byteOffset" : 31451936
        },
        {
            "buffer" : 0,
            "byteLength" : 15914624,
            "byteOffset" : 55323872
        },
        {
            "buffer" : 0,
            "byteLength" : 13251744,
            "byteOffset" : 71238496
        },
        {
            "buffer" : 0,
            "byteLength" : 820224,
            "byteOffset" : 84490240
        },
        {
            "buffer" : 0,
            "byteLength" : 820224,
            "byteOffset" : 85310464
        },
        {
            "buffer" : 0,
            "byteLength" : 546816,
            "byteOffset" : 86130688
        },
        {
            "buffer" : 0,
            "byteLength" : 410112,
            "byteOffset" : 86677504
        },
        {
            "buffer" : 0,
            "byteLength" : 6747816,
            "byteOffset" : 87087616
        },
        {
            "buffer" : 0,
            "byteLength" : 6747816,
            "byteOffset" : 93835432
        },
        {
            "buffer" : 0,
            "byteLength" : 4498544,
            "byteOffset" : 100583248
        },
        {
            "buffer" : 0,
            "byteLength" : 3622656,
            "byteOffset" : 105081792
        },
        {
            "buffer" : 0,
            "byteLength" : 215796,
            "byteOffset" : 108704448
        },
        {
            "buffer" : 0,
            "byteLength" : 215796,
            "byteOffset" : 108920244
        },
        {
            "buffer" : 0,
            "byteLength" : 143864,
            "byteOffset" : 109136040
        },
        {
            "buffer" : 0,
            "byteLength" : 89262,
            "byteOffset" : 109279904
        },
        {
            "buffer" : 0,
            "byteLength" : 4812,
            "byteOffset" : 109369168
        },
        {
            "buffer" : 0,
            "byteLength" : 4812,
            "byteOffset" : 109373980
        },
        {
            "buffer" : 0,
            "byteLength" : 3208,
            "byteOffset" : 109378792
        },
        {
            "buffer" : 0,
            "byteLength" : 1998,
            "byteOffset" : 109382000
        },
        {
            "buffer" : 0,
            "byteLength" : 1248,
            "byteOffset" : 109384000
        },
        {
            "buffer" : 0,
            "byteLength" : 1248,
            "byteOffset" : 109385248
        },
        {
            "buffer" : 0,
            "byteLength" : 832,
            "byteOffset" : 109386496
        },
        {
            "buffer" : 0,
            "byteLength" : 396,
            "byteOffset" : 109387328
        },
        {
            "buffer" : 0,
            "byteLength" : 6144,
            "byteOffset" : 109387724
        },
        {
            "buffer" : 0,
            "byteLength" : 6144,
            "byteOffset" : 109393868
        },
        {
            "buffer" : 0,
            "byteLength" : 4096,
            "byteOffset" : 109400012
        },
        {
            "buffer" : 0,
            "byteLength" : 1920,
            "byteOffset" : 109404108
        },
        {
            "buffer" : 0,
            "byteLength" : 360,
            "byteOffset" : 109406028
        },
        {
            "buffer" : 0,
            "byteLength" : 360,
            "byteOffset" : 109406388
        },
        {
            "buffer" : 0,
            "byteLength" : 240,
            "byteOffset" : 109406748
        },
        {
            "buffer" : 0,
            "byteLength" : 108,
            "byteOffset" : 109406988
        }
    ],
    "buffers" : [
        {
            "byteLength" : 109407096,
            "uri" : "maison.bin"
        }
    ]
}
