{
    "asset" : {
        "generator" : "Khronos glTF Blender I/O v1.1.45",
        "version" : "2.0"
    },
    "scene" : 0,
    "scenes" : [
        {
            "name" : "Scene",
            "nodes" : [
                0
            ]
        }
    ],
    "nodes" : [
        {
            "mesh" : 0,
            "name" : "route",
            "rotation" : [
                1,
                0,
                0,
                -1.3435885648505064e-07
            ]
        }
    ],
    "materials" : [
        {
            "doubleSided" : true,
            "emissiveFactor" : [
                0,
                0,
                0
            ],
            "name" : "mercury",
            "pbrMetallicRoughness" : {
                "baseColorTexture" : {
                    "index" : 0,
                    "texCoord" : 0
                },
                "metallicFactor" : 0,
                "roughnessFactor" : 0.5
            }
        },
        {
            "doubleSided" : true,
            "emissiveFactor" : [
                0,
                0,
                0
            ],
            "name" : "tungsten",
            "pbrMetallicRoughness" : {
                "baseColorTexture" : {
                    "index" : 1,
                    "texCoord" : 0
                },
                "metallicFactor" : 0,
                "roughnessFactor" : 0.5
            }
        }
    ],
    "meshes" : [
        {
            "name" : "Cube.006_Cube.001",
            "primitives" : [
                {
                    "attributes" : {
                        "POSITION" : 0,
                        "NORMAL" : 1,
                        "TEXCOORD_0" : 2
                    },
                    "indices" : 3,
                    "material" : 0
                },
                {
                    "attributes" : {
                        "POSITION" : 4,
                        "NORMAL" : 5,
                        "TEXCOORD_0" : 6
                    },
                    "indices" : 7,
                    "material" : 1
                }
            ]
        }
    ],
    "textures" : [
        {
            "source" : 0
        },
        {
            "source" : 1
        }
    ],
    "images" : [
        {
            "mimeType" : "image/png",
            "name" : "mercury",
            "uri" : "mercury.png"
        },
        {
            "mimeType" : "image/png",
            "name" : "tungsten",
            "uri" : "tungsten.png"
        }
    ],
    "accessors" : [
        {
            "bufferView" : 0,
            "componentType" : 5126,
            "count" : 1141,
            "max" : [
                1.9766299724578857,
                0.009184368886053562,
                1.7307500839233398
            ],
            "min" : [
                -1.7431319952011108,
                -0.018336687237024307,
                -1.9749276638031006
            ],
            "type" : "VEC3"
        },
        {
            "bufferView" : 1,
            "componentType" : 5126,
            "count" : 1141,
            "type" : "VEC3"
        },
        {
            "bufferView" : 2,
            "componentType" : 5126,
            "count" : 1141,
            "type" : "VEC2"
        },
        {
            "bufferView" : 3,
            "componentType" : 5123,
            "count" : 1800,
            "type" : "SCALAR"
        },
        {
            "bufferView" : 4,
            "componentType" : 5126,
            "count" : 570,
            "max" : [
                1.9764330387115479,
                0.009114814922213554,
                1.7307500839233398
            ],
            "min" : [
                -1.7431294918060303,
                -0.018336687237024307,
                -1.9748759269714355
            ],
            "type" : "VEC3"
        },
        {
            "bufferView" : 5,
            "componentType" : 5126,
            "count" : 570,
            "type" : "VEC3"
        },
        {
            "bufferView" : 6,
            "componentType" : 5126,
            "count" : 570,
            "type" : "VEC2"
        },
        {
            "bufferView" : 7,
            "componentType" : 5123,
            "count" : 888,
            "type" : "SCALAR"
        }
    ],
    "bufferViews" : [
        {
            "buffer" : 0,
            "byteLength" : 13692,
            "byteOffset" : 0
        },
        {
            "buffer" : 0,
            "byteLength" : 13692,
            "byteOffset" : 13692
        },
        {
            "buffer" : 0,
            "byteLength" : 9128,
            "byteOffset" : 27384
        },
        {
            "buffer" : 0,
            "byteLength" : 3600,
            "byteOffset" : 36512
        },
        {
            "buffer" : 0,
            "byteLength" : 6840,
            "byteOffset" : 40112
        },
        {
            "buffer" : 0,
            "byteLength" : 6840,
            "byteOffset" : 46952
        },
        {
            "buffer" : 0,
            "byteLength" : 4560,
            "byteOffset" : 53792
        },
        {
            "buffer" : 0,
            "byteLength" : 1776,
            "byteOffset" : 58352
        }
    ],
    "buffers" : [
        {
            "byteLength" : 60128,
            "uri" : "route.bin"
        }
    ]
}
