{
    "asset" : {
        "generator" : "Khronos glTF Blender I/O v1.1.45",
        "version" : "2.0"
    },
    "scene" : 0,
    "scenes" : [
        {
            "name" : "Scene",
            "nodes" : [
                0
            ]
        }
    ],
    "nodes" : [
        {
            "mesh" : 0,
            "name" : "Cube.053_Cube.054",
            "rotation" : [
                1,
                0,
                0,
                -1.3435885648505064e-07
            ],
            "scale" : [
                0.076413094997406,
                0.076413094997406,
                0.076413094997406
            ]
        }
    ],
    "materials" : [
        {
            "doubleSided" : true,
            "emissiveFactor" : [
                0,
                0,
                0
            ],
            "name" : "Material.016",
            "pbrMetallicRoughness" : {
                "baseColorTexture" : {
                    "index" : 0,
                    "texCoord" : 0
                },
                "metallicFactor" : 0,
                "roughnessFactor" : 0.5
            }
        },
        {
            "doubleSided" : true,
            "emissiveFactor" : [
                0,
                0,
                0
            ],
            "name" : "Material.017",
            "pbrMetallicRoughness" : {
                "baseColorTexture" : {
                    "index" : 1,
                    "texCoord" : 0
                },
                "metallicFactor" : 0,
                "roughnessFactor" : 0.5
            }
        },
        {
            "doubleSided" : true,
            "emissiveFactor" : [
                0,
                0,
                0
            ],
            "name" : "Material.018",
            "pbrMetallicRoughness" : {
                "baseColorTexture" : {
                    "index" : 2,
                    "texCoord" : 0
                },
                "metallicFactor" : 0,
                "roughnessFactor" : 0.4000000059604645
            }
        },
        {
            "doubleSided" : true,
            "emissiveFactor" : [
                0,
                0,
                0
            ],
            "name" : "Material.019",
            "pbrMetallicRoughness" : {
                "baseColorTexture" : {
                    "index" : 3,
                    "texCoord" : 0
                },
                "metallicFactor" : 0,
                "roughnessFactor" : 0.5
            }
        },
        {
            "doubleSided" : true,
            "emissiveFactor" : [
                0,
                0,
                0
            ],
            "name" : "Material.020",
            "pbrMetallicRoughness" : {
                "baseColorTexture" : {
                    "index" : 4,
                    "texCoord" : 0
                },
                "metallicFactor" : 0,
                "roughnessFactor" : 0.5
            }
        },
        {
            "doubleSided" : true,
            "emissiveFactor" : [
                0,
                0,
                0
            ],
            "name" : "Material.021",
            "pbrMetallicRoughness" : {
                "baseColorTexture" : {
                    "index" : 5,
                    "texCoord" : 0
                },
                "metallicFactor" : 0,
                "roughnessFactor" : 0.5
            }
        },
        {
            "doubleSided" : true,
            "emissiveFactor" : [
                0,
                0,
                0
            ],
            "name" : "Material.023",
            "pbrMetallicRoughness" : {
                "baseColorTexture" : {
                    "index" : 6,
                    "texCoord" : 0
                },
                "metallicFactor" : 0,
                "roughnessFactor" : 0.5
            }
        },
        {
            "doubleSided" : true,
            "emissiveFactor" : [
                0,
                0,
                0
            ],
            "name" : "Material.024",
            "pbrMetallicRoughness" : {
                "baseColorTexture" : {
                    "index" : 7,
                    "texCoord" : 0
                },
                "metallicFactor" : 0,
                "roughnessFactor" : 0.5
            }
        }
    ],
    "meshes" : [
        {
            "name" : "Cube.053_Cube.054",
            "primitives" : [
                {
                    "attributes" : {
                        "POSITION" : 0,
                        "NORMAL" : 1,
                        "TEXCOORD_0" : 2
                    },
                    "indices" : 3,
                    "material" : 0
                },
                {
                    "attributes" : {
                        "POSITION" : 4,
                        "NORMAL" : 5,
                        "TEXCOORD_0" : 6
                    },
                    "indices" : 7,
                    "material" : 1
                },
                {
                    "attributes" : {
                        "POSITION" : 8,
                        "NORMAL" : 9,
                        "TEXCOORD_0" : 10
                    },
                    "indices" : 11,
                    "material" : 2
                },
                {
                    "attributes" : {
                        "POSITION" : 12,
                        "NORMAL" : 13,
                        "TEXCOORD_0" : 14
                    },
                    "indices" : 15,
                    "material" : 3
                },
                {
                    "attributes" : {
                        "POSITION" : 16,
                        "NORMAL" : 17,
                        "TEXCOORD_0" : 18
                    },
                    "indices" : 19,
                    "material" : 4
                },
                {
                    "attributes" : {
                        "POSITION" : 20,
                        "NORMAL" : 21,
                        "TEXCOORD_0" : 22
                    },
                    "indices" : 23,
                    "material" : 5
                },
                {
                    "attributes" : {
                        "POSITION" : 24,
                        "NORMAL" : 25,
                        "TEXCOORD_0" : 26
                    },
                    "indices" : 27,
                    "material" : 6
                },
                {
                    "attributes" : {
                        "POSITION" : 28,
                        "NORMAL" : 29,
                        "TEXCOORD_0" : 30
                    },
                    "indices" : 31,
                    "material" : 7
                }
            ]
        }
    ],
    "textures" : [
        {
            "source" : 0
        },
        {
            "source" : 1
        },
        {
            "source" : 2
        },
        {
            "source" : 1
        },
        {
            "source" : 3
        },
        {
            "source" : 4
        },
        {
            "source" : 5
        },
        {
            "source" : 6
        }
    ],
    "images" : [
        {
            "mimeType" : "image/png",
            "name" : "rouge",
            "uri" : "rouge.png"
        },
        {
            "mimeType" : "image/png",
            "name" : "brun",
            "uri" : "brun.png"
        },
        {
            "mimeType" : "image/png",
            "name" : "lime",
            "uri" : "lime.png"
        },
        {
            "mimeType" : "image/png",
            "name" : "saumon",
            "uri" : "saumon.png"
        },
        {
            "mimeType" : "image/png",
            "name" : "banane",
            "uri" : "banane.png"
        },
        {
            "mimeType" : "image/png",
            "name" : "gris",
            "uri" : "gris.png"
        },
        {
            "mimeType" : "image/png",
            "name" : "midnight",
            "uri" : "midnight.png"
        }
    ],
    "accessors" : [
        {
            "bufferView" : 0,
            "componentType" : 5126,
            "count" : 75,
            "max" : [
                1.4424877166748047,
                -0.19613957405090332,
                0.15202856063842773
            ],
            "min" : [
                -1.4203433990478516,
                -0.5588256120681763,
                -0.1519017219543457
            ],
            "type" : "VEC3"
        },
        {
            "bufferView" : 1,
            "componentType" : 5126,
            "count" : 75,
            "type" : "VEC3"
        },
        {
            "bufferView" : 2,
            "componentType" : 5126,
            "count" : 75,
            "type" : "VEC2"
        },
        {
            "bufferView" : 3,
            "componentType" : 5123,
            "count" : 96,
            "type" : "SCALAR"
        },
        {
            "bufferView" : 4,
            "componentType" : 5126,
            "count" : 48600,
            "max" : [
                1.8095836639404297,
                -0.18601560592651367,
                1.3825078010559082
            ],
            "min" : [
                -1.7985038757324219,
                -3.450305700302124,
                -1.3823800086975098
            ],
            "type" : "VEC3"
        },
        {
            "bufferView" : 5,
            "componentType" : 5126,
            "count" : 48600,
            "type" : "VEC3"
        },
        {
            "bufferView" : 6,
            "componentType" : 5126,
            "count" : 48600,
            "type" : "VEC2"
        },
        {
            "bufferView" : 7,
            "componentType" : 5123,
            "count" : 68196,
            "type" : "SCALAR"
        },
        {
            "bufferView" : 8,
            "componentType" : 5126,
            "count" : 430,
            "max" : [
                1.8095836639404297,
                -0.15621459484100342,
                1.361405849456787
            ],
            "min" : [
                -1.7985038757324219,
                -3.686859607696533,
                -1.3612780570983887
            ],
            "type" : "VEC3"
        },
        {
            "bufferView" : 9,
            "componentType" : 5126,
            "count" : 430,
            "type" : "VEC3"
        },
        {
            "bufferView" : 10,
            "componentType" : 5126,
            "count" : 430,
            "type" : "VEC2"
        },
        {
            "bufferView" : 11,
            "componentType" : 5123,
            "count" : 594,
            "type" : "SCALAR"
        },
        {
            "bufferView" : 12,
            "componentType" : 5126,
            "count" : 430,
            "max" : [
                1.8095836639404297,
                -0.8448606729507446,
                1.3825078010559082
            ],
            "min" : [
                -1.7985038757324219,
                -3.686859607696533,
                -1.3823800086975098
            ],
            "type" : "VEC3"
        },
        {
            "bufferView" : 13,
            "componentType" : 5126,
            "count" : 430,
            "type" : "VEC3"
        },
        {
            "bufferView" : 14,
            "componentType" : 5126,
            "count" : 430,
            "type" : "VEC2"
        },
        {
            "bufferView" : 15,
            "componentType" : 5123,
            "count" : 606,
            "type" : "SCALAR"
        },
        {
            "bufferView" : 16,
            "componentType" : 5126,
            "count" : 148,
            "max" : [
                1.7333564758300781,
                -2.3375935554504395,
                1.0778837203979492
            ],
            "min" : [
                -1.7205753326416016,
                -3.438110589981079,
                -1.10225248336792
            ],
            "type" : "VEC3"
        },
        {
            "bufferView" : 17,
            "componentType" : 5126,
            "count" : 148,
            "type" : "VEC3"
        },
        {
            "bufferView" : 18,
            "componentType" : 5126,
            "count" : 148,
            "type" : "VEC2"
        },
        {
            "bufferView" : 19,
            "componentType" : 5123,
            "count" : 246,
            "type" : "SCALAR"
        },
        {
            "bufferView" : 20,
            "componentType" : 5126,
            "count" : 170,
            "max" : [
                1.518350601196289,
                -0.18924665451049805,
                1.2079696655273438
            ],
            "min" : [
                -1.507272720336914,
                -0.8197176456451416,
                -1.2078423500061035
            ],
            "type" : "VEC3"
        },
        {
            "bufferView" : 21,
            "componentType" : 5126,
            "count" : 170,
            "type" : "VEC3"
        },
        {
            "bufferView" : 22,
            "componentType" : 5126,
            "count" : 170,
            "type" : "VEC2"
        },
        {
            "bufferView" : 23,
            "componentType" : 5123,
            "count" : 192,
            "type" : "SCALAR"
        },
        {
            "bufferView" : 24,
            "componentType" : 5126,
            "count" : 173,
            "max" : [
                1.4650001525878906,
                -0.15621459484100342,
                1.17893648147583
            ],
            "min" : [
                -1.4539203643798828,
                -0.18924665451049805,
                -1.178809642791748
            ],
            "type" : "VEC3"
        },
        {
            "bufferView" : 25,
            "componentType" : 5126,
            "count" : 173,
            "type" : "VEC3"
        },
        {
            "bufferView" : 26,
            "componentType" : 5126,
            "count" : 173,
            "type" : "VEC2"
        },
        {
            "bufferView" : 27,
            "componentType" : 5123,
            "count" : 204,
            "type" : "SCALAR"
        },
        {
            "bufferView" : 28,
            "componentType" : 5126,
            "count" : 1876,
            "max" : [
                1.7432327270507812,
                -0.9727907180786133,
                1.3145499229431152
            ],
            "min" : [
                -1.7398185729980469,
                -3.075742721557617,
                -1.3115487098693848
            ],
            "type" : "VEC3"
        },
        {
            "bufferView" : 29,
            "componentType" : 5126,
            "count" : 1876,
            "type" : "VEC3"
        },
        {
            "bufferView" : 30,
            "componentType" : 5126,
            "count" : 1876,
            "type" : "VEC2"
        },
        {
            "bufferView" : 31,
            "componentType" : 5123,
            "count" : 2208,
            "type" : "SCALAR"
        }
    ],
    "bufferViews" : [
        {
            "buffer" : 0,
            "byteLength" : 900,
            "byteOffset" : 0
        },
        {
            "buffer" : 0,
            "byteLength" : 900,
            "byteOffset" : 900
        },
        {
            "buffer" : 0,
            "byteLength" : 600,
            "byteOffset" : 1800
        },
        {
            "buffer" : 0,
            "byteLength" : 192,
            "byteOffset" : 2400
        },
        {
            "buffer" : 0,
            "byteLength" : 583200,
            "byteOffset" : 2592
        },
        {
            "buffer" : 0,
            "byteLength" : 583200,
            "byteOffset" : 585792
        },
        {
            "buffer" : 0,
            "byteLength" : 388800,
            "byteOffset" : 1168992
        },
        {
            "buffer" : 0,
            "byteLength" : 136392,
            "byteOffset" : 1557792
        },
        {
            "buffer" : 0,
            "byteLength" : 5160,
            "byteOffset" : 1694184
        },
        {
            "buffer" : 0,
            "byteLength" : 5160,
            "byteOffset" : 1699344
        },
        {
            "buffer" : 0,
            "byteLength" : 3440,
            "byteOffset" : 1704504
        },
        {
            "buffer" : 0,
            "byteLength" : 1188,
            "byteOffset" : 1707944
        },
        {
            "buffer" : 0,
            "byteLength" : 5160,
            "byteOffset" : 1709132
        },
        {
            "buffer" : 0,
            "byteLength" : 5160,
            "byteOffset" : 1714292
        },
        {
            "buffer" : 0,
            "byteLength" : 3440,
            "byteOffset" : 1719452
        },
        {
            "buffer" : 0,
            "byteLength" : 1212,
            "byteOffset" : 1722892
        },
        {
            "buffer" : 0,
            "byteLength" : 1776,
            "byteOffset" : 1724104
        },
        {
            "buffer" : 0,
            "byteLength" : 1776,
            "byteOffset" : 1725880
        },
        {
            "buffer" : 0,
            "byteLength" : 1184,
            "byteOffset" : 1727656
        },
        {
            "buffer" : 0,
            "byteLength" : 492,
            "byteOffset" : 1728840
        },
        {
            "buffer" : 0,
            "byteLength" : 2040,
            "byteOffset" : 1729332
        },
        {
            "buffer" : 0,
            "byteLength" : 2040,
            "byteOffset" : 1731372
        },
        {
            "buffer" : 0,
            "byteLength" : 1360,
            "byteOffset" : 1733412
        },
        {
            "buffer" : 0,
            "byteLength" : 384,
            "byteOffset" : 1734772
        },
        {
            "buffer" : 0,
            "byteLength" : 2076,
            "byteOffset" : 1735156
        },
        {
            "buffer" : 0,
            "byteLength" : 2076,
            "byteOffset" : 1737232
        },
        {
            "buffer" : 0,
            "byteLength" : 1384,
            "byteOffset" : 1739308
        },
        {
            "buffer" : 0,
            "byteLength" : 408,
            "byteOffset" : 1740692
        },
        {
            "buffer" : 0,
            "byteLength" : 22512,
            "byteOffset" : 1741100
        },
        {
            "buffer" : 0,
            "byteLength" : 22512,
            "byteOffset" : 1763612
        },
        {
            "buffer" : 0,
            "byteLength" : 15008,
            "byteOffset" : 1786124
        },
        {
            "buffer" : 0,
            "byteLength" : 4416,
            "byteOffset" : 1801132
        }
    ],
    "buffers" : [
        {
            "byteLength" : 1805548,
            "uri" : "hotel.bin"
        }
    ]
}
