{
    "asset" : {
        "generator" : "Khronos glTF Blender I/O v1.0.5",
        "version" : "2.0"
    },
    "scene" : 0,
    "scenes" : [
        {
            "name" : "Scene",
            "nodes" : [
                0,
                1,
                2,
                3
            ]
        }
    ],
    "nodes" : [
        {
            "mesh" : 0,
            "name" : "Cube",
            "translation" : [
                0,
                -0.021591156721115112,
                -0.5037937164306641
            ]
        },
        {
            "name" : "Light",
            "rotation" : [
                0.16907575726509094,
                0.7558803558349609,
                -0.27217137813568115,
                0.570947527885437
            ],
            "translation" : [
                4.076245307922363,
                5.903861999511719,
                -1.0054539442062378
            ]
        },
        {
            "name" : "Camera",
            "rotation" : [
                0.483536034822464,
                0.33687159419059753,
                -0.20870360732078552,
                0.7804827094078064
            ],
            "translation" : [
                7.358891487121582,
                4.958309173583984,
                6.925790786743164
            ]
        },
        {
            "name" : "Empty",
            "rotation" : [
                0.5,
                0.5,
                -0.5,
                0.4999999701976776
            ]
        }
    ],
    "materials" : [
        {
            "doubleSided" : true,
            "name" : "team_color",
            "pbrMetallicRoughness" : {
                "baseColorTexture" : {
                    "index" : 0,
                    "texCoord" : 0
                },
                "metallicFactor" : 0.35087719559669495,
                "roughnessFactor" : 0.4000000059604645
            }
        },
        {
            "doubleSided" : true,
            "emissiveFactor" : [
                1,
                1,
                1
            ],
            "emissiveTexture" : {
                "index" : 1,
                "texCoord" : 0
            },
            "name" : "phares avants",
            "pbrMetallicRoughness" : {}
        },
        {
            "doubleSided" : true,
            "name" : "pneus",
            "pbrMetallicRoughness" : {
                "baseColorTexture" : {
                    "index" : 2,
                    "texCoord" : 0
                },
                "metallicFactor" : 0,
                "roughnessFactor" : 0.7982456088066101
            }
        },
        {
            "doubleSided" : true,
            "name" : "jantes",
            "pbrMetallicRoughness" : {
                "baseColorTexture" : {
                    "index" : 3,
                    "texCoord" : 0
                },
                "metallicFactor" : 0,
                "roughnessFactor" : 0.5087718963623047
            }
        },
        {
            "doubleSided" : true,
            "name" : "vitres",
            "pbrMetallicRoughness" : {
                "baseColorTexture" : {
                    "index" : 4,
                    "texCoord" : 0
                },
                "metallicFactor" : 0,
                "roughnessFactor" : 0.5
            }
        },
        {
            "doubleSided" : true,
            "name" : "Contour_Vitres",
            "pbrMetallicRoughness" : {
                "baseColorTexture" : {
                    "index" : 5,
                    "texCoord" : 0
                },
                "metallicFactor" : 0,
                "roughnessFactor" : 0.34210526943206787
            }
        },
        {
            "doubleSided" : true,
            "emissiveFactor" : [
                1,
                1,
                1
            ],
            "emissiveTexture" : {
                "index" : 6,
                "texCoord" : 0
            },
            "name" : "phares arri\u00e8res",
            "pbrMetallicRoughness" : {}
        }
    ],
    "meshes" : [
        {
            "name" : "Cube",
            "primitives" : [
                {
                    "attributes" : {
                        "POSITION" : 0,
                        "NORMAL" : 1,
                        "TEXCOORD_0" : 2
                    },
                    "indices" : 3,
                    "material" : 0
                },
                {
                    "attributes" : {
                        "POSITION" : 4,
                        "NORMAL" : 5,
                        "TEXCOORD_0" : 6
                    },
                    "indices" : 7,
                    "material" : 1
                },
                {
                    "attributes" : {
                        "POSITION" : 8,
                        "NORMAL" : 9,
                        "TEXCOORD_0" : 10
                    },
                    "indices" : 11,
                    "material" : 2
                },
                {
                    "attributes" : {
                        "POSITION" : 12,
                        "NORMAL" : 13,
                        "TEXCOORD_0" : 14
                    },
                    "indices" : 15,
                    "material" : 3
                },
                {
                    "attributes" : {
                        "POSITION" : 16,
                        "NORMAL" : 17,
                        "TEXCOORD_0" : 18
                    },
                    "indices" : 19,
                    "material" : 4
                },
                {
                    "attributes" : {
                        "POSITION" : 20,
                        "NORMAL" : 21,
                        "TEXCOORD_0" : 22
                    },
                    "indices" : 23,
                    "material" : 5
                },
                {
                    "attributes" : {
                        "POSITION" : 24,
                        "NORMAL" : 25,
                        "TEXCOORD_0" : 26
                    },
                    "indices" : 27,
                    "material" : 6
                }
            ]
        }
    ],
    "textures" : [
        {
            "source" : 0
        },
        {
            "source" : 1
        },
        {
            "source" : 2
        },
        {
            "source" : 3
        },
        {
            "source" : 4
        },
        {
            "source" : 2
        },
        {
            "source" : 5
        }
    ],
    "images" : [
        {
            "mimeType" : "image/png",
            "name" : "orange",
            "uri" : "orange.png"
        },
        {
            "mimeType" : "image/png",
            "name" : "blanc",
            "uri" : "blanc.png"
        },
        {
            "mimeType" : "image/png",
            "name" : "noir",
            "uri" : "noir.png"
        },
        {
            "mimeType" : "image/png",
            "name" : "gris",
            "uri" : "gris.png"
        },
        {
            "mimeType" : "image/png",
            "name" : "ice",
            "uri" : "ice.png"
        },
        {
            "mimeType" : "image/png",
            "name" : "cayenne",
            "uri" : "cayenne.png"
        }
    ],
    "accessors" : [
        {
            "bufferView" : 0,
            "componentType" : 5126,
            "count" : 1655,
            "max" : [
                0.8014614582061768,
                0.708577573299408,
                2.5887675285339355
            ],
            "min" : [
                0,
                -0.6938073039054871,
                -1.7514896392822266
            ],
            "type" : "VEC3"
        },
        {
            "bufferView" : 1,
            "componentType" : 5126,
            "count" : 1655,
            "type" : "VEC3"
        },
        {
            "bufferView" : 2,
            "componentType" : 5126,
            "count" : 1655,
            "type" : "VEC2"
        },
        {
            "bufferView" : 3,
            "componentType" : 5123,
            "count" : 2754,
            "type" : "SCALAR"
        },
        {
            "bufferView" : 4,
            "componentType" : 5126,
            "count" : 7,
            "max" : [
                0.7563732862472534,
                -0.30055996775627136,
                -1.606119990348816
            ],
            "min" : [
                0.6046760082244873,
                -0.403038889169693,
                -1.6535433530807495
            ],
            "type" : "VEC3"
        },
        {
            "bufferView" : 5,
            "componentType" : 5126,
            "count" : 7,
            "type" : "VEC3"
        },
        {
            "bufferView" : 6,
            "componentType" : 5126,
            "count" : 7,
            "type" : "VEC2"
        },
        {
            "bufferView" : 7,
            "componentType" : 5123,
            "count" : 15,
            "type" : "SCALAR"
        },
        {
            "bufferView" : 8,
            "componentType" : 5126,
            "count" : 664,
            "max" : [
                0.8497757911682129,
                -0.14630207419395447,
                1.6669623851776123
            ],
            "min" : [
                0,
                -0.7917863726615906,
                -1.7514896392822266
            ],
            "type" : "VEC3"
        },
        {
            "bufferView" : 9,
            "componentType" : 5126,
            "count" : 664,
            "type" : "VEC3"
        },
        {
            "bufferView" : 10,
            "componentType" : 5126,
            "count" : 664,
            "type" : "VEC2"
        },
        {
            "bufferView" : 11,
            "componentType" : 5123,
            "count" : 996,
            "type" : "SCALAR"
        },
        {
            "bufferView" : 12,
            "componentType" : 5126,
            "count" : 814,
            "max" : [
                0.830926239490509,
                -0.14630207419395447,
                1.5689833164215088
            ],
            "min" : [
                0,
                -0.6938073039054871,
                -1.698434829711914
            ],
            "type" : "VEC3"
        },
        {
            "bufferView" : 13,
            "componentType" : 5126,
            "count" : 814,
            "type" : "VEC3"
        },
        {
            "bufferView" : 14,
            "componentType" : 5126,
            "count" : 814,
            "type" : "VEC2"
        },
        {
            "bufferView" : 15,
            "componentType" : 5123,
            "count" : 1260,
            "type" : "SCALAR"
        },
        {
            "bufferView" : 16,
            "componentType" : 5126,
            "count" : 112,
            "max" : [
                0.9159531593322754,
                0.5961939692497253,
                2.5241434574127197
            ],
            "min" : [
                0,
                -0.5140977501869202,
                -0.9994245171546936
            ],
            "type" : "VEC3"
        },
        {
            "bufferView" : 17,
            "componentType" : 5126,
            "count" : 112,
            "type" : "VEC3"
        },
        {
            "bufferView" : 18,
            "componentType" : 5126,
            "count" : 112,
            "type" : "VEC2"
        },
        {
            "bufferView" : 19,
            "componentType" : 5123,
            "count" : 168,
            "type" : "SCALAR"
        },
        {
            "bufferView" : 20,
            "componentType" : 5126,
            "count" : 1062,
            "max" : [
                0.9244852066040039,
                0.6019191145896912,
                2.587181568145752
            ],
            "min" : [
                0.0073438906110823154,
                -0.5970174670219421,
                -0.8714192509651184
            ],
            "type" : "VEC3"
        },
        {
            "bufferView" : 21,
            "componentType" : 5126,
            "count" : 1062,
            "type" : "VEC3"
        },
        {
            "bufferView" : 22,
            "componentType" : 5126,
            "count" : 1062,
            "type" : "VEC2"
        },
        {
            "bufferView" : 23,
            "componentType" : 5123,
            "count" : 1644,
            "type" : "SCALAR"
        },
        {
            "bufferView" : 24,
            "componentType" : 5126,
            "count" : 8,
            "max" : [
                0.6826733350753784,
                0.023054540157318115,
                2.573932647705078
            ],
            "min" : [
                0.5987883806228638,
                -0.08692219853401184,
                2.5735669136047363
            ],
            "type" : "VEC3"
        },
        {
            "bufferView" : 25,
            "componentType" : 5126,
            "count" : 8,
            "type" : "VEC3"
        },
        {
            "bufferView" : 26,
            "componentType" : 5126,
            "count" : 8,
            "type" : "VEC2"
        },
        {
            "bufferView" : 27,
            "componentType" : 5123,
            "count" : 12,
            "type" : "SCALAR"
        }
    ],
    "bufferViews" : [
        {
            "buffer" : 0,
            "byteLength" : 19860,
            "byteOffset" : 0
        },
        {
            "buffer" : 0,
            "byteLength" : 19860,
            "byteOffset" : 19860
        },
        {
            "buffer" : 0,
            "byteLength" : 13240,
            "byteOffset" : 39720
        },
        {
            "buffer" : 0,
            "byteLength" : 5508,
            "byteOffset" : 52960
        },
        {
            "buffer" : 0,
            "byteLength" : 84,
            "byteOffset" : 58468
        },
        {
            "buffer" : 0,
            "byteLength" : 84,
            "byteOffset" : 58552
        },
        {
            "buffer" : 0,
            "byteLength" : 56,
            "byteOffset" : 58636
        },
        {
            "buffer" : 0,
            "byteLength" : 30,
            "byteOffset" : 58692
        },
        {
            "buffer" : 0,
            "byteLength" : 7968,
            "byteOffset" : 58724
        },
        {
            "buffer" : 0,
            "byteLength" : 7968,
            "byteOffset" : 66692
        },
        {
            "buffer" : 0,
            "byteLength" : 5312,
            "byteOffset" : 74660
        },
        {
            "buffer" : 0,
            "byteLength" : 1992,
            "byteOffset" : 79972
        },
        {
            "buffer" : 0,
            "byteLength" : 9768,
            "byteOffset" : 81964
        },
        {
            "buffer" : 0,
            "byteLength" : 9768,
            "byteOffset" : 91732
        },
        {
            "buffer" : 0,
            "byteLength" : 6512,
            "byteOffset" : 101500
        },
        {
            "buffer" : 0,
            "byteLength" : 2520,
            "byteOffset" : 108012
        },
        {
            "buffer" : 0,
            "byteLength" : 1344,
            "byteOffset" : 110532
        },
        {
            "buffer" : 0,
            "byteLength" : 1344,
            "byteOffset" : 111876
        },
        {
            "buffer" : 0,
            "byteLength" : 896,
            "byteOffset" : 113220
        },
        {
            "buffer" : 0,
            "byteLength" : 336,
            "byteOffset" : 114116
        },
        {
            "buffer" : 0,
            "byteLength" : 12744,
            "byteOffset" : 114452
        },
        {
            "buffer" : 0,
            "byteLength" : 12744,
            "byteOffset" : 127196
        },
        {
            "buffer" : 0,
            "byteLength" : 8496,
            "byteOffset" : 139940
        },
        {
            "buffer" : 0,
            "byteLength" : 3288,
            "byteOffset" : 148436
        },
        {
            "buffer" : 0,
            "byteLength" : 96,
            "byteOffset" : 151724
        },
        {
            "buffer" : 0,
            "byteLength" : 96,
            "byteOffset" : 151820
        },
        {
            "buffer" : 0,
            "byteLength" : 64,
            "byteOffset" : 151916
        },
        {
            "buffer" : 0,
            "byteLength" : 24,
            "byteOffset" : 151980
        }
    ],
    "buffers" : [
        {
            "byteLength" : 152004,
            "uri" : "schoolbus_final2.bin"
        }
    ]
}
