{
    "asset" : {
        "generator" : "Khronos glTF Blender I/O v1.0.5",
        "version" : "2.0"
    },
    "scene" : 0,
    "scenes" : [
        {
            "name" : "Scene",
            "nodes" : [
                0,
                1,
                2,
                3,
                4
            ]
        }
    ],
    "nodes" : [
        {
            "mesh" : 0,
            "name" : "Tracteur",
            "scale" : [
                0.9962136149406433,
                0.9962136149406433,
                0.9962136149406433
            ],
            "translation" : [
                9.894371032714844e-05,
                -0.055033594369888306,
                -0.007823526859283447
            ]
        },
        {
            "name" : "Camera",
            "rotation" : [
                0.483536034822464,
                0.33687159419059753,
                -0.20870360732078552,
                0.7804827094078064
            ],
            "scale" : [
                0.9999653697013855,
                0.9999654293060303,
                0.999965488910675
            ],
            "translation" : [
                7.358736038208008,
                4.958230972290039,
                6.925601959228516
            ]
        },
        {
            "name" : "Sun",
            "translation" : [
                0.07233071327209473,
                4.875532150268555,
                -1.3559331893920898
            ]
        },
        {
            "mesh" : 1,
            "name" : "Roue arriere",
            "scale" : [
                0.9962136149406433,
                0.9962136149406433,
                0.9962136149406433
            ],
            "translation" : [
                0.03769254684448242,
                -0.7287980318069458,
                -1.4380953311920166
            ]
        },
        {
            "mesh" : 2,
            "name" : "Roue avant",
            "scale" : [
                0.9962136149406433,
                0.9962136149406433,
                0.9962136149406433
            ],
            "translation" : [
                9.894371032714844e-05,
                -0.9951913356781006,
                1.7271758317947388
            ]
        }
    ],
    "animations" : [
        {
            "channels" : [
                {
                    "sampler" : 0,
                    "target" : {
                        "node" : 3,
                        "path" : "rotation"
                    }
                }
            ],
            "name" : "Cube.001Action",
            "samplers" : [
                {
                    "input" : 40,
                    "interpolation" : "LINEAR",
                    "output" : 41
                }
            ]
        },
        {
            "channels" : [
                {
                    "sampler" : 0,
                    "target" : {
                        "node" : 4,
                        "path" : "rotation"
                    }
                }
            ],
            "name" : "Roue avantAction",
            "samplers" : [
                {
                    "input" : 40,
                    "interpolation" : "LINEAR",
                    "output" : 42
                }
            ]
        }
    ],
    "materials" : [
        {
            "doubleSided" : true,
            "name" : "team_color",
            "pbrMetallicRoughness" : {
                "baseColorTexture" : {
                    "index" : 0,
                    "texCoord" : 0
                },
                "metallicFactor" : 0.21666666865348816,
                "roughnessFactor" : 0.5416666865348816
            }
        },
        {
            "doubleSided" : true,
            "emissiveFactor" : [
                1,
                1,
                1
            ],
            "emissiveTexture" : {
                "index" : 1,
                "texCoord" : 0
            },
            "name" : "lights",
            "pbrMetallicRoughness" : {}
        },
        {
            "doubleSided" : true,
            "name" : "retro",
            "pbrMetallicRoughness" : {
                "baseColorTexture" : {
                    "index" : 2,
                    "texCoord" : 0
                },
                "metallicFactor" : 0,
                "roughnessFactor" : 0.5
            }
        },
        {
            "doubleSided" : true,
            "name" : "gris",
            "pbrMetallicRoughness" : {
                "baseColorTexture" : {
                    "index" : 3,
                    "texCoord" : 0
                },
                "metallicFactor" : 0.7250000238418579,
                "roughnessFactor" : 0.4166666567325592
            }
        },
        {
            "doubleSided" : true,
            "name" : "Vitres",
            "pbrMetallicRoughness" : {
                "baseColorTexture" : {
                    "index" : 4,
                    "texCoord" : 0
                },
                "metallicFactor" : 0,
                "roughnessFactor" : 0.5
            }
        },
        {
            "doubleSided" : true,
            "emissiveFactor" : [
                1,
                1,
                1
            ],
            "emissiveTexture" : {
                "index" : 5,
                "texCoord" : 0
            },
            "name" : "feu",
            "pbrMetallicRoughness" : {}
        },
        {
            "doubleSided" : true,
            "name" : "pneu",
            "pbrMetallicRoughness" : {
                "baseColorTexture" : {
                    "index" : 6,
                    "texCoord" : 0
                },
                "metallicFactor" : 0,
                "roughnessFactor" : 0.5
            }
        }
    ],
    "meshes" : [
        {
            "name" : "Cube",
            "primitives" : [
                {
                    "attributes" : {
                        "POSITION" : 0,
                        "NORMAL" : 1,
                        "TEXCOORD_0" : 2
                    },
                    "indices" : 3,
                    "material" : 0
                },
                {
                    "attributes" : {
                        "POSITION" : 4,
                        "NORMAL" : 5,
                        "TEXCOORD_0" : 6
                    },
                    "indices" : 7,
                    "material" : 1
                },
                {
                    "attributes" : {
                        "POSITION" : 8,
                        "NORMAL" : 9,
                        "TEXCOORD_0" : 10
                    },
                    "indices" : 11,
                    "material" : 2
                },
                {
                    "attributes" : {
                        "POSITION" : 12,
                        "NORMAL" : 13,
                        "TEXCOORD_0" : 14
                    },
                    "indices" : 15,
                    "material" : 3
                },
                {
                    "attributes" : {
                        "POSITION" : 16,
                        "NORMAL" : 17,
                        "TEXCOORD_0" : 18
                    },
                    "indices" : 19,
                    "material" : 4
                },
                {
                    "attributes" : {
                        "POSITION" : 20,
                        "NORMAL" : 21,
                        "TEXCOORD_0" : 22
                    },
                    "indices" : 23,
                    "material" : 5
                }
            ]
        },
        {
            "name" : "Cube.001",
            "primitives" : [
                {
                    "attributes" : {
                        "POSITION" : 24,
                        "NORMAL" : 25,
                        "TEXCOORD_0" : 26
                    },
                    "indices" : 27,
                    "material" : 6
                },
                {
                    "attributes" : {
                        "POSITION" : 28,
                        "NORMAL" : 29,
                        "TEXCOORD_0" : 30
                    },
                    "indices" : 31,
                    "material" : 3
                }
            ]
        },
        {
            "name" : "Cube.002",
            "primitives" : [
                {
                    "attributes" : {
                        "POSITION" : 32,
                        "NORMAL" : 33,
                        "TEXCOORD_0" : 34
                    },
                    "indices" : 35,
                    "material" : 6
                },
                {
                    "attributes" : {
                        "POSITION" : 36,
                        "NORMAL" : 37,
                        "TEXCOORD_0" : 38
                    },
                    "indices" : 39,
                    "material" : 3
                }
            ]
        }
    ],
    "textures" : [
        {
            "source" : 0
        },
        {
            "source" : 1
        },
        {
            "source" : 2
        },
        {
            "source" : 3
        },
        {
            "source" : 4
        },
        {
            "source" : 0
        },
        {
            "source" : 2
        }
    ],
    "images" : [
        {
            "mimeType" : "image/png",
            "name" : "cayenne",
            "uri" : "cayenne.png"
        },
        {
            "mimeType" : "image/png",
            "name" : "blanc",
            "uri" : "blanc.png"
        },
        {
            "mimeType" : "image/png",
            "name" : "noir",
            "uri" : "noir.png"
        },
        {
            "mimeType" : "image/png",
            "name" : "gris",
            "uri" : "gris.png"
        },
        {
            "mimeType" : "image/png",
            "name" : "ice",
            "uri" : "ice.png"
        }
    ],
    "accessors" : [
        {
            "bufferView" : 0,
            "componentType" : 5126,
            "count" : 2511,
            "max" : [
                1.4413981437683105,
                2.329767942428589,
                2.3528928756713867
            ],
            "min" : [
                -1.4663783311843872,
                -1.0088106393814087,
                -2.3303213119506836
            ],
            "type" : "VEC3"
        },
        {
            "bufferView" : 1,
            "componentType" : 5126,
            "count" : 2511,
            "type" : "VEC3"
        },
        {
            "bufferView" : 2,
            "componentType" : 5126,
            "count" : 2511,
            "type" : "VEC2"
        },
        {
            "bufferView" : 3,
            "componentType" : 5123,
            "count" : 4092,
            "type" : "SCALAR"
        },
        {
            "bufferView" : 4,
            "componentType" : 5126,
            "count" : 8,
            "max" : [
                0.8282747268676758,
                0.1926508992910385,
                2.1966702938079834
            ],
            "min" : [
                0.5825386643409729,
                -0.003012807108461857,
                2.191685438156128
            ],
            "type" : "VEC3"
        },
        {
            "bufferView" : 5,
            "componentType" : 5126,
            "count" : 8,
            "type" : "VEC3"
        },
        {
            "bufferView" : 6,
            "componentType" : 5126,
            "count" : 8,
            "type" : "VEC2"
        },
        {
            "bufferView" : 7,
            "componentType" : 5123,
            "count" : 12,
            "type" : "SCALAR"
        },
        {
            "bufferView" : 8,
            "componentType" : 5126,
            "count" : 522,
            "max" : [
                1.4663783311843872,
                1.3376553058624268,
                2.3528928756713867
            ],
            "min" : [
                0,
                -1.0088106393814087,
                -2.2279598712921143
            ],
            "type" : "VEC3"
        },
        {
            "bufferView" : 9,
            "componentType" : 5126,
            "count" : 522,
            "type" : "VEC3"
        },
        {
            "bufferView" : 10,
            "componentType" : 5126,
            "count" : 522,
            "type" : "VEC2"
        },
        {
            "bufferView" : 11,
            "componentType" : 5123,
            "count" : 834,
            "type" : "SCALAR"
        },
        {
            "bufferView" : 12,
            "componentType" : 5126,
            "count" : 338,
            "max" : [
                1.4413981437683105,
                2.329767942428589,
                1.7740412950515747
            ],
            "min" : [
                0,
                -0.978690505027771,
                -2.213322639465332
            ],
            "type" : "VEC3"
        },
        {
            "bufferView" : 13,
            "componentType" : 5126,
            "count" : 338,
            "type" : "VEC3"
        },
        {
            "bufferView" : 14,
            "componentType" : 5126,
            "count" : 338,
            "type" : "VEC2"
        },
        {
            "bufferView" : 15,
            "componentType" : 5123,
            "count" : 573,
            "type" : "SCALAR"
        },
        {
            "bufferView" : 16,
            "componentType" : 5126,
            "count" : 24,
            "max" : [
                1.2470579147338867,
                1.336430311203003,
                0.4362890422344208
            ],
            "min" : [
                0,
                0.4232974648475647,
                -1.4519250392913818
            ],
            "type" : "VEC3"
        },
        {
            "bufferView" : 17,
            "componentType" : 5126,
            "count" : 24,
            "type" : "VEC3"
        },
        {
            "bufferView" : 18,
            "componentType" : 5126,
            "count" : 24,
            "type" : "VEC2"
        },
        {
            "bufferView" : 19,
            "componentType" : 5123,
            "count" : 36,
            "type" : "SCALAR"
        },
        {
            "bufferView" : 20,
            "componentType" : 5126,
            "count" : 12,
            "max" : [
                0.9411095976829529,
                0.4053422808647156,
                2.1937811374664307
            ],
            "min" : [
                -0.8690392374992371,
                0.22793416678905487,
                -2.2028427124023438
            ],
            "type" : "VEC3"
        },
        {
            "bufferView" : 21,
            "componentType" : 5126,
            "count" : 12,
            "type" : "VEC3"
        },
        {
            "bufferView" : 22,
            "componentType" : 5126,
            "count" : 12,
            "type" : "VEC2"
        },
        {
            "bufferView" : 23,
            "componentType" : 5123,
            "count" : 18,
            "type" : "SCALAR"
        },
        {
            "bufferView" : 24,
            "componentType" : 5126,
            "count" : 1334,
            "max" : [
                1.6510074138641357,
                1.0345396995544434,
                1.0376334190368652
            ],
            "min" : [
                0.9064587354660034,
                -1.028185486793518,
                -1.0250916481018066
            ],
            "type" : "VEC3"
        },
        {
            "bufferView" : 25,
            "componentType" : 5126,
            "count" : 1334,
            "type" : "VEC3"
        },
        {
            "bufferView" : 26,
            "componentType" : 5126,
            "count" : 1334,
            "type" : "VEC2"
        },
        {
            "bufferView" : 27,
            "componentType" : 5123,
            "count" : 2262,
            "type" : "SCALAR"
        },
        {
            "bufferView" : 28,
            "componentType" : 5126,
            "count" : 192,
            "max" : [
                1.5652236938476562,
                0.48031434416770935,
                0.48308467864990234
            ],
            "min" : [
                0.9922423958778381,
                -0.4733649492263794,
                -0.4705946445465088
            ],
            "type" : "VEC3"
        },
        {
            "bufferView" : 29,
            "componentType" : 5126,
            "count" : 192,
            "type" : "VEC3"
        },
        {
            "bufferView" : 30,
            "componentType" : 5126,
            "count" : 192,
            "type" : "VEC2"
        },
        {
            "bufferView" : 31,
            "componentType" : 5123,
            "count" : 288,
            "type" : "SCALAR"
        },
        {
            "bufferView" : 32,
            "componentType" : 5126,
            "count" : 1200,
            "max" : [
                1.6183615922927856,
                0.7821575403213501,
                0.7799911499023438
            ],
            "min" : [
                1.1195228099822998,
                -0.781201183795929,
                -0.7833676338195801
            ],
            "type" : "VEC3"
        },
        {
            "bufferView" : 33,
            "componentType" : 5126,
            "count" : 1200,
            "type" : "VEC3"
        },
        {
            "bufferView" : 34,
            "componentType" : 5126,
            "count" : 1200,
            "type" : "VEC2"
        },
        {
            "bufferView" : 35,
            "componentType" : 5123,
            "count" : 1920,
            "type" : "SCALAR"
        },
        {
            "bufferView" : 36,
            "componentType" : 5126,
            "count" : 192,
            "max" : [
                1.5567626953125,
                0.4252997040748596,
                0.42313337326049805
            ],
            "min" : [
                1.1811213493347168,
                -0.42434340715408325,
                -0.4265098571777344
            ],
            "type" : "VEC3"
        },
        {
            "bufferView" : 37,
            "componentType" : 5126,
            "count" : 192,
            "type" : "VEC3"
        },
        {
            "bufferView" : 38,
            "componentType" : 5126,
            "count" : 192,
            "type" : "VEC2"
        },
        {
            "bufferView" : 39,
            "componentType" : 5123,
            "count" : 288,
            "type" : "SCALAR"
        },
        {
            "bufferView" : 40,
            "componentType" : 5126,
            "count" : 41,
            "max" : [
                1.6666666666666667
            ],
            "min" : [
                0
            ],
            "type" : "SCALAR"
        },
        {
            "bufferView" : 41,
            "componentType" : 5126,
            "count" : 41,
            "type" : "VEC4"
        },
        {
            "bufferView" : 42,
            "componentType" : 5126,
            "count" : 41,
            "type" : "VEC4"
        }
    ],
    "bufferViews" : [
        {
            "buffer" : 0,
            "byteLength" : 30132,
            "byteOffset" : 0
        },
        {
            "buffer" : 0,
            "byteLength" : 30132,
            "byteOffset" : 30132
        },
        {
            "buffer" : 0,
            "byteLength" : 20088,
            "byteOffset" : 60264
        },
        {
            "buffer" : 0,
            "byteLength" : 8184,
            "byteOffset" : 80352
        },
        {
            "buffer" : 0,
            "byteLength" : 96,
            "byteOffset" : 88536
        },
        {
            "buffer" : 0,
            "byteLength" : 96,
            "byteOffset" : 88632
        },
        {
            "buffer" : 0,
            "byteLength" : 64,
            "byteOffset" : 88728
        },
        {
            "buffer" : 0,
            "byteLength" : 24,
            "byteOffset" : 88792
        },
        {
            "buffer" : 0,
            "byteLength" : 6264,
            "byteOffset" : 88816
        },
        {
            "buffer" : 0,
            "byteLength" : 6264,
            "byteOffset" : 95080
        },
        {
            "buffer" : 0,
            "byteLength" : 4176,
            "byteOffset" : 101344
        },
        {
            "buffer" : 0,
            "byteLength" : 1668,
            "byteOffset" : 105520
        },
        {
            "buffer" : 0,
            "byteLength" : 4056,
            "byteOffset" : 107188
        },
        {
            "buffer" : 0,
            "byteLength" : 4056,
            "byteOffset" : 111244
        },
        {
            "buffer" : 0,
            "byteLength" : 2704,
            "byteOffset" : 115300
        },
        {
            "buffer" : 0,
            "byteLength" : 1146,
            "byteOffset" : 118004
        },
        {
            "buffer" : 0,
            "byteLength" : 288,
            "byteOffset" : 119152
        },
        {
            "buffer" : 0,
            "byteLength" : 288,
            "byteOffset" : 119440
        },
        {
            "buffer" : 0,
            "byteLength" : 192,
            "byteOffset" : 119728
        },
        {
            "buffer" : 0,
            "byteLength" : 72,
            "byteOffset" : 119920
        },
        {
            "buffer" : 0,
            "byteLength" : 144,
            "byteOffset" : 119992
        },
        {
            "buffer" : 0,
            "byteLength" : 144,
            "byteOffset" : 120136
        },
        {
            "buffer" : 0,
            "byteLength" : 96,
            "byteOffset" : 120280
        },
        {
            "buffer" : 0,
            "byteLength" : 36,
            "byteOffset" : 120376
        },
        {
            "buffer" : 0,
            "byteLength" : 16008,
            "byteOffset" : 120412
        },
        {
            "buffer" : 0,
            "byteLength" : 16008,
            "byteOffset" : 136420
        },
        {
            "buffer" : 0,
            "byteLength" : 10672,
            "byteOffset" : 152428
        },
        {
            "buffer" : 0,
            "byteLength" : 4524,
            "byteOffset" : 163100
        },
        {
            "buffer" : 0,
            "byteLength" : 2304,
            "byteOffset" : 167624
        },
        {
            "buffer" : 0,
            "byteLength" : 2304,
            "byteOffset" : 169928
        },
        {
            "buffer" : 0,
            "byteLength" : 1536,
            "byteOffset" : 172232
        },
        {
            "buffer" : 0,
            "byteLength" : 576,
            "byteOffset" : 173768
        },
        {
            "buffer" : 0,
            "byteLength" : 14400,
            "byteOffset" : 174344
        },
        {
            "buffer" : 0,
            "byteLength" : 14400,
            "byteOffset" : 188744
        },
        {
            "buffer" : 0,
            "byteLength" : 9600,
            "byteOffset" : 203144
        },
        {
            "buffer" : 0,
            "byteLength" : 3840,
            "byteOffset" : 212744
        },
        {
            "buffer" : 0,
            "byteLength" : 2304,
            "byteOffset" : 216584
        },
        {
            "buffer" : 0,
            "byteLength" : 2304,
            "byteOffset" : 218888
        },
        {
            "buffer" : 0,
            "byteLength" : 1536,
            "byteOffset" : 221192
        },
        {
            "buffer" : 0,
            "byteLength" : 576,
            "byteOffset" : 222728
        },
        {
            "buffer" : 0,
            "byteLength" : 164,
            "byteOffset" : 223304
        },
        {
            "buffer" : 0,
            "byteLength" : 656,
            "byteOffset" : 223468
        },
        {
            "buffer" : 0,
            "byteLength" : 656,
            "byteOffset" : 224124
        }
    ],
    "buffers" : [
        {
            "byteLength" : 224780,
            "uri" : "tracteur.bin"
        }
    ]
}
