{
    "asset" : {
        "generator" : "Khronos glTF Blender I/O v1.1.45",
        "version" : "2.0"
    },
    "scene" : 0,
    "scenes" : [
        {
            "name" : "Scene",
            "nodes" : [
                0
            ]
        }
    ],
    "nodes" : [
        {
            "mesh" : 0,
            "name" : "Cylinder",
            "rotation" : [
                0,
                0,
                -0.7071067690849304,
                0.7071068286895752
            ],
            "scale" : [
                0.0020562538411468267,
                0.0020562538411468267,
                0.0020562538411468267
            ]
        }
    ],
    "materials" : [
        {
            "doubleSided" : true,
            "emissiveFactor" : [
                0,
                0,
                0
            ],
            "name" : "fern",
            "pbrMetallicRoughness" : {
                "baseColorTexture" : {
                    "index" : 0,
                    "texCoord" : 0
                },
                "metallicFactor" : 0,
                "roughnessFactor" : 0.4000000059604645
            }
        },
        {
            "doubleSided" : true,
            "name" : "Material.009",
            "pbrMetallicRoughness" : {}
        },
        {
            "doubleSided" : true,
            "emissiveFactor" : [
                0,
                0,
                0
            ],
            "name" : "silver",
            "pbrMetallicRoughness" : {
                "baseColorTexture" : {
                    "index" : 1,
                    "texCoord" : 0
                },
                "metallicFactor" : 0,
                "roughnessFactor" : 0.5
            }
        },
        {
            "doubleSided" : true,
            "emissiveFactor" : [
                0,
                0,
                0
            ],
            "name" : "mocha",
            "pbrMetallicRoughness" : {
                "baseColorTexture" : {
                    "index" : 2,
                    "texCoord" : 0
                },
                "metallicFactor" : 0,
                "roughnessFactor" : 0.5
            }
        },
        {
            "doubleSided" : true,
            "emissiveFactor" : [
                0,
                0,
                0
            ],
            "name" : "jaune",
            "pbrMetallicRoughness" : {
                "baseColorTexture" : {
                    "index" : 3,
                    "texCoord" : 0
                },
                "metallicFactor" : 0,
                "roughnessFactor" : 0.5
            }
        },
        {
            "doubleSided" : true,
            "emissiveFactor" : [
                0,
                0,
                0
            ],
            "name" : "tungsten",
            "pbrMetallicRoughness" : {
                "baseColorTexture" : {
                    "index" : 4,
                    "texCoord" : 0
                },
                "metallicFactor" : 0,
                "roughnessFactor" : 0.5
            }
        },
        {
            "doubleSided" : true,
            "name" : "Material.005",
            "pbrMetallicRoughness" : {}
        },
        {
            "doubleSided" : true,
            "emissiveFactor" : [
                0,
                0,
                0
            ],
            "name" : "noir",
            "pbrMetallicRoughness" : {
                "baseColorTexture" : {
                    "index" : 5,
                    "texCoord" : 0
                },
                "metallicFactor" : 0,
                "roughnessFactor" : 0.5
            }
        },
        {
            "doubleSided" : true,
            "emissiveFactor" : [
                0,
                0,
                0
            ],
            "name" : "gris",
            "pbrMetallicRoughness" : {
                "baseColorTexture" : {
                    "index" : 6,
                    "texCoord" : 0
                },
                "metallicFactor" : 0,
                "roughnessFactor" : 0.5
            }
        }
    ],
    "meshes" : [
        {
            "name" : "Cylinder.053",
            "primitives" : [
                {
                    "attributes" : {
                        "POSITION" : 0,
                        "NORMAL" : 1,
                        "TEXCOORD_0" : 2
                    },
                    "indices" : 3,
                    "material" : 0
                },
                {
                    "attributes" : {
                        "POSITION" : 4,
                        "NORMAL" : 5,
                        "TEXCOORD_0" : 6
                    },
                    "indices" : 7,
                    "material" : 1
                },
                {
                    "attributes" : {
                        "POSITION" : 8,
                        "NORMAL" : 9,
                        "TEXCOORD_0" : 10
                    },
                    "indices" : 11,
                    "material" : 2
                },
                {
                    "attributes" : {
                        "POSITION" : 12,
                        "NORMAL" : 13,
                        "TEXCOORD_0" : 14
                    },
                    "indices" : 15,
                    "material" : 3
                },
                {
                    "attributes" : {
                        "POSITION" : 16,
                        "NORMAL" : 17,
                        "TEXCOORD_0" : 18
                    },
                    "indices" : 19,
                    "material" : 4
                },
                {
                    "attributes" : {
                        "POSITION" : 20,
                        "NORMAL" : 21,
                        "TEXCOORD_0" : 22
                    },
                    "indices" : 23,
                    "material" : 5
                },
                {
                    "attributes" : {
                        "POSITION" : 24,
                        "NORMAL" : 25,
                        "TEXCOORD_0" : 26
                    },
                    "indices" : 27,
                    "material" : 6
                },
                {
                    "attributes" : {
                        "POSITION" : 28,
                        "NORMAL" : 29,
                        "TEXCOORD_0" : 30
                    },
                    "indices" : 31,
                    "material" : 7
                },
                {
                    "attributes" : {
                        "POSITION" : 32,
                        "NORMAL" : 33,
                        "TEXCOORD_0" : 34
                    },
                    "indices" : 35,
                    "material" : 8
                },
                {
                    "attributes" : {
                        "POSITION" : 36,
                        "NORMAL" : 37,
                        "TEXCOORD_0" : 38
                    },
                    "indices" : 39
                }
            ]
        }
    ],
    "textures" : [
        {
            "source" : 0
        },
        {
            "source" : 1
        },
        {
            "source" : 2
        },
        {
            "source" : 3
        },
        {
            "source" : 4
        },
        {
            "source" : 5
        },
        {
            "source" : 6
        }
    ],
    "images" : [
        {
            "mimeType" : "image/png",
            "name" : "fern",
            "uri" : "fern.png"
        },
        {
            "mimeType" : "image/png",
            "name" : "silver",
            "uri" : "silver.png"
        },
        {
            "mimeType" : "image/png",
            "name" : "mocha",
            "uri" : "mocha.png"
        },
        {
            "mimeType" : "image/png",
            "name" : "jaune",
            "uri" : "jaune.png"
        },
        {
            "mimeType" : "image/png",
            "name" : "tungsten",
            "uri" : "tungsten.png"
        },
        {
            "mimeType" : "image/png",
            "name" : "noir",
            "uri" : "noir.png"
        },
        {
            "mimeType" : "image/png",
            "name" : "gris",
            "uri" : "gris.png"
        }
    ],
    "accessors" : [
        {
            "bufferView" : 0,
            "componentType" : 5126,
            "count" : 7488,
            "max" : [
                -2.3165369033813477,
                6.24054479598999,
                28.346120834350586
            ],
            "min" : [
                -34.36787414550781,
                -6.240540027618408,
                -28.042556762695312
            ],
            "type" : "VEC3"
        },
        {
            "bufferView" : 1,
            "componentType" : 5126,
            "count" : 7488,
            "type" : "VEC3"
        },
        {
            "bufferView" : 2,
            "componentType" : 5126,
            "count" : 7488,
            "type" : "VEC2"
        },
        {
            "bufferView" : 3,
            "componentType" : 5123,
            "count" : 12552,
            "type" : "SCALAR"
        },
        {
            "bufferView" : 4,
            "componentType" : 5126,
            "count" : 1180,
            "max" : [
                -32.898014068603516,
                9.4795503616333,
                8.778531074523926
            ],
            "min" : [
                -33.993408203125,
                -9.479544639587402,
                7.683139324188232
            ],
            "type" : "VEC3"
        },
        {
            "bufferView" : 5,
            "componentType" : 5126,
            "count" : 1180,
            "type" : "VEC3"
        },
        {
            "bufferView" : 6,
            "componentType" : 5126,
            "count" : 1180,
            "type" : "VEC2"
        },
        {
            "bufferView" : 7,
            "componentType" : 5123,
            "count" : 2100,
            "type" : "SCALAR"
        },
        {
            "bufferView" : 8,
            "componentType" : 5126,
            "count" : 5472,
            "max" : [
                -3.102349281311035,
                5.186341285705566,
                27.94316864013672
            ],
            "min" : [
                -31.072532653808594,
                -5.228782653808594,
                -23.622467041015625
            ],
            "type" : "VEC3"
        },
        {
            "bufferView" : 9,
            "componentType" : 5126,
            "count" : 5472,
            "type" : "VEC3"
        },
        {
            "bufferView" : 10,
            "componentType" : 5126,
            "count" : 5472,
            "type" : "VEC2"
        },
        {
            "bufferView" : 11,
            "componentType" : 5123,
            "count" : 8850,
            "type" : "SCALAR"
        },
        {
            "bufferView" : 12,
            "componentType" : 5126,
            "count" : 106,
            "max" : [
                -21.66230010986328,
                3.026458501815796,
                -4.645746231079102
            ],
            "min" : [
                -26.677165985107422,
                -3.0264546871185303,
                -25.031951904296875
            ],
            "type" : "VEC3"
        },
        {
            "bufferView" : 13,
            "componentType" : 5126,
            "count" : 106,
            "type" : "VEC3"
        },
        {
            "bufferView" : 14,
            "componentType" : 5126,
            "count" : 106,
            "type" : "VEC2"
        },
        {
            "bufferView" : 15,
            "componentType" : 5123,
            "count" : 168,
            "type" : "SCALAR"
        },
        {
            "bufferView" : 16,
            "componentType" : 5126,
            "count" : 32,
            "max" : [
                -26.275121688842773,
                1.8450877666473389,
                16.398916244506836
            ],
            "min" : [
                -29.965293884277344,
                -1.8450837135314941,
                16.398916244506836
            ],
            "type" : "VEC3"
        },
        {
            "bufferView" : 17,
            "componentType" : 5126,
            "count" : 32,
            "type" : "VEC3"
        },
        {
            "bufferView" : 18,
            "componentType" : 5126,
            "count" : 32,
            "type" : "VEC2"
        },
        {
            "bufferView" : 19,
            "componentType" : 5123,
            "count" : 90,
            "type" : "SCALAR"
        },
        {
            "bufferView" : 20,
            "componentType" : 5126,
            "count" : 1640,
            "max" : [
                -9.625061988830566,
                4.159294605255127,
                7.25586462020874
            ],
            "min" : [
                -23.360736846923828,
                -4.159292221069336,
                -4.159293174743652
            ],
            "type" : "VEC3"
        },
        {
            "bufferView" : 21,
            "componentType" : 5126,
            "count" : 1640,
            "type" : "VEC3"
        },
        {
            "bufferView" : 22,
            "componentType" : 5126,
            "count" : 1640,
            "type" : "VEC2"
        },
        {
            "bufferView" : 23,
            "componentType" : 5123,
            "count" : 3156,
            "type" : "SCALAR"
        },
        {
            "bufferView" : 24,
            "componentType" : 5126,
            "count" : 2944,
            "max" : [
                -8.054131507873535,
                7.534058570861816,
                9.625197410583496
            ],
            "min" : [
                -18.432958602905273,
                -7.490039348602295,
                -26.60698699951172
            ],
            "type" : "VEC3"
        },
        {
            "bufferView" : 25,
            "componentType" : 5126,
            "count" : 2944,
            "type" : "VEC3"
        },
        {
            "bufferView" : 26,
            "componentType" : 5126,
            "count" : 2944,
            "type" : "VEC2"
        },
        {
            "bufferView" : 27,
            "componentType" : 5123,
            "count" : 4584,
            "type" : "SCALAR"
        },
        {
            "bufferView" : 28,
            "componentType" : 5126,
            "count" : 2962,
            "max" : [
                -0.3810415267944336,
                5.688528060913086,
                30.66447639465332
            ],
            "min" : [
                -23.273971557617188,
                -5.672798156738281,
                -32.06785202026367
            ],
            "type" : "VEC3"
        },
        {
            "bufferView" : 29,
            "componentType" : 5126,
            "count" : 2962,
            "type" : "VEC3"
        },
        {
            "bufferView" : 30,
            "componentType" : 5126,
            "count" : 2962,
            "type" : "VEC2"
        },
        {
            "bufferView" : 31,
            "componentType" : 5123,
            "count" : 4164,
            "type" : "SCALAR"
        },
        {
            "bufferView" : 32,
            "componentType" : 5126,
            "count" : 256,
            "max" : [
                -3.102349281311035,
                2.1521155834198,
                -12.702369689941406
            ],
            "min" : [
                -16.909114837646484,
                -2.152693748474121,
                -26.509132385253906
            ],
            "type" : "VEC3"
        },
        {
            "bufferView" : 33,
            "componentType" : 5126,
            "count" : 256,
            "type" : "VEC3"
        },
        {
            "bufferView" : 34,
            "componentType" : 5126,
            "count" : 256,
            "type" : "VEC2"
        },
        {
            "bufferView" : 35,
            "componentType" : 5123,
            "count" : 384,
            "type" : "SCALAR"
        },
        {
            "bufferView" : 36,
            "componentType" : 5126,
            "count" : 26084,
            "max" : [
                -11.163296699523926,
                10.364823341369629,
                9.60260009765625
            ],
            "min" : [
                -47.13950729370117,
                -10.379583358764648,
                -15.279382705688477
            ],
            "type" : "VEC3"
        },
        {
            "bufferView" : 37,
            "componentType" : 5126,
            "count" : 26084,
            "type" : "VEC3"
        },
        {
            "bufferView" : 38,
            "componentType" : 5126,
            "count" : 26084,
            "type" : "VEC2"
        },
        {
            "bufferView" : 39,
            "componentType" : 5123,
            "count" : 37884,
            "type" : "SCALAR"
        }
    ],
    "bufferViews" : [
        {
            "buffer" : 0,
            "byteLength" : 89856,
            "byteOffset" : 0
        },
        {
            "buffer" : 0,
            "byteLength" : 89856,
            "byteOffset" : 89856
        },
        {
            "buffer" : 0,
            "byteLength" : 59904,
            "byteOffset" : 179712
        },
        {
            "buffer" : 0,
            "byteLength" : 25104,
            "byteOffset" : 239616
        },
        {
            "buffer" : 0,
            "byteLength" : 14160,
            "byteOffset" : 264720
        },
        {
            "buffer" : 0,
            "byteLength" : 14160,
            "byteOffset" : 278880
        },
        {
            "buffer" : 0,
            "byteLength" : 9440,
            "byteOffset" : 293040
        },
        {
            "buffer" : 0,
            "byteLength" : 4200,
            "byteOffset" : 302480
        },
        {
            "buffer" : 0,
            "byteLength" : 65664,
            "byteOffset" : 306680
        },
        {
            "buffer" : 0,
            "byteLength" : 65664,
            "byteOffset" : 372344
        },
        {
            "buffer" : 0,
            "byteLength" : 43776,
            "byteOffset" : 438008
        },
        {
            "buffer" : 0,
            "byteLength" : 17700,
            "byteOffset" : 481784
        },
        {
            "buffer" : 0,
            "byteLength" : 1272,
            "byteOffset" : 499484
        },
        {
            "buffer" : 0,
            "byteLength" : 1272,
            "byteOffset" : 500756
        },
        {
            "buffer" : 0,
            "byteLength" : 848,
            "byteOffset" : 502028
        },
        {
            "buffer" : 0,
            "byteLength" : 336,
            "byteOffset" : 502876
        },
        {
            "buffer" : 0,
            "byteLength" : 384,
            "byteOffset" : 503212
        },
        {
            "buffer" : 0,
            "byteLength" : 384,
            "byteOffset" : 503596
        },
        {
            "buffer" : 0,
            "byteLength" : 256,
            "byteOffset" : 503980
        },
        {
            "buffer" : 0,
            "byteLength" : 180,
            "byteOffset" : 504236
        },
        {
            "buffer" : 0,
            "byteLength" : 19680,
            "byteOffset" : 504416
        },
        {
            "buffer" : 0,
            "byteLength" : 19680,
            "byteOffset" : 524096
        },
        {
            "buffer" : 0,
            "byteLength" : 13120,
            "byteOffset" : 543776
        },
        {
            "buffer" : 0,
            "byteLength" : 6312,
            "byteOffset" : 556896
        },
        {
            "buffer" : 0,
            "byteLength" : 35328,
            "byteOffset" : 563208
        },
        {
            "buffer" : 0,
            "byteLength" : 35328,
            "byteOffset" : 598536
        },
        {
            "buffer" : 0,
            "byteLength" : 23552,
            "byteOffset" : 633864
        },
        {
            "buffer" : 0,
            "byteLength" : 9168,
            "byteOffset" : 657416
        },
        {
            "buffer" : 0,
            "byteLength" : 35544,
            "byteOffset" : 666584
        },
        {
            "buffer" : 0,
            "byteLength" : 35544,
            "byteOffset" : 702128
        },
        {
            "buffer" : 0,
            "byteLength" : 23696,
            "byteOffset" : 737672
        },
        {
            "buffer" : 0,
            "byteLength" : 8328,
            "byteOffset" : 761368
        },
        {
            "buffer" : 0,
            "byteLength" : 3072,
            "byteOffset" : 769696
        },
        {
            "buffer" : 0,
            "byteLength" : 3072,
            "byteOffset" : 772768
        },
        {
            "buffer" : 0,
            "byteLength" : 2048,
            "byteOffset" : 775840
        },
        {
            "buffer" : 0,
            "byteLength" : 768,
            "byteOffset" : 777888
        },
        {
            "buffer" : 0,
            "byteLength" : 313008,
            "byteOffset" : 778656
        },
        {
            "buffer" : 0,
            "byteLength" : 313008,
            "byteOffset" : 1091664
        },
        {
            "buffer" : 0,
            "byteLength" : 208672,
            "byteOffset" : 1404672
        },
        {
            "buffer" : 0,
            "byteLength" : 75768,
            "byteOffset" : 1613344
        }
    ],
    "buffers" : [
        {
            "byteLength" : 1689112,
            "uri" : "moto.bin"
        }
    ]
}
