{
    "asset" : {
        "generator" : "Khronos glTF Blender I/O v1.0.5",
        "version" : "2.0"
    },
    "scene" : 0,
    "scenes" : [
        {
            "name" : "Scene",
            "nodes" : [
                0,
                1,
                2,
                3,
                4
            ]
        }
    ],
    "nodes" : [
        {
            "name" : "Light",
            "rotation" : [
                0.16907575726509094,
                0.7558803558349609,
                -0.27217137813568115,
                0.570947527885437
            ],
            "translation" : [
                6.8821563720703125,
                5.903861999511719,
                13.129983901977539
            ]
        },
        {
            "name" : "Camera",
            "rotation" : [
                0.483536034822464,
                0.33687159419059753,
                -0.20870360732078552,
                0.7804827094078064
            ],
            "translation" : [
                18.808589935302734,
                13.354562759399414,
                18.33271026611328
            ]
        },
        {
            "name" : "Empty",
            "rotation" : [
                -0.49999988079071045,
                0.4999999403953552,
                -0.5000000596046448,
                -0.5000000596046448
            ],
            "scale" : [
                50.55796432495117,
                50.55796432495117,
                50.55796432495117
            ],
            "translation" : [
                0,
                0.7337103486061096,
                11.5136079788208
            ]
        },
        {
            "name" : "Empty.001",
            "rotation" : [
                -0.49999988079071045,
                0.4999999403953552,
                -0.5000000596046448,
                -0.5000000596046448
            ],
            "scale" : [
                50.55796432495117,
                50.55796432495117,
                50.55796432495117
            ],
            "translation" : [
                0,
                0.7337103486061096,
                11.5136079788208
            ]
        },
        {
            "mesh" : 0,
            "name" : "Cylinder.032",
            "rotation" : [
                0,
                0,
                -0.7071067690849304,
                0.7071068286895752
            ],
            "scale" : [
                0.4116860628128052,
                1.1384081840515137,
                0.4116860628128052
            ],
            "translation" : [
                0,
                -0.29927197098731995,
                -4.842111110687256
            ]
        }
    ],
    "materials" : [
        {
            "doubleSided" : true,
            "name" : "Material",
            "pbrMetallicRoughness" : {}
        },
        {
            "doubleSided" : true,
            "name" : "Material.010",
            "pbrMetallicRoughness" : {}
        },
        {
            "doubleSided" : true,
            "name" : "Material.004",
            "pbrMetallicRoughness" : {
                "baseColorTexture" : {
                    "index" : 0,
                    "texCoord" : 0
                },
                "metallicFactor" : 0,
                "roughnessFactor" : 0.5
            }
        },
        {
            "doubleSided" : true,
            "name" : "Material.012",
            "pbrMetallicRoughness" : {}
        },
        {
            "doubleSided" : true,
            "name" : "Material.005",
            "pbrMetallicRoughness" : {}
        },
        {
            "doubleSided" : true,
            "name" : "Material.007",
            "pbrMetallicRoughness" : {}
        },
        {
            "doubleSided" : true,
            "name" : "Material.013",
            "pbrMetallicRoughness" : {}
        },
        {
            "doubleSided" : true,
            "name" : "Material.001",
            "pbrMetallicRoughness" : {}
        },
        {
            "doubleSided" : true,
            "name" : "Material.002",
            "pbrMetallicRoughness" : {}
        },
        {
            "doubleSided" : true,
            "name" : "Material.003",
            "pbrMetallicRoughness" : {}
        },
        {
            "doubleSided" : true,
            "name" : "Material.009",
            "pbrMetallicRoughness" : {}
        }
    ],
    "meshes" : [
        {
            "name" : "Cylinder.035",
            "primitives" : [
                {
                    "attributes" : {
                        "POSITION" : 0,
                        "NORMAL" : 1,
                        "TEXCOORD_0" : 2
                    },
                    "indices" : 3,
                    "material" : 0
                },
                {
                    "attributes" : {
                        "POSITION" : 4,
                        "NORMAL" : 5,
                        "TEXCOORD_0" : 6
                    },
                    "indices" : 7,
                    "material" : 1
                },
                {
                    "attributes" : {
                        "POSITION" : 8,
                        "NORMAL" : 9,
                        "TEXCOORD_0" : 10
                    },
                    "indices" : 11,
                    "material" : 2
                },
                {
                    "attributes" : {
                        "POSITION" : 12,
                        "NORMAL" : 13,
                        "TEXCOORD_0" : 14
                    },
                    "indices" : 15,
                    "material" : 3
                },
                {
                    "attributes" : {
                        "POSITION" : 16,
                        "NORMAL" : 17,
                        "TEXCOORD_0" : 18
                    },
                    "indices" : 19,
                    "material" : 4
                },
                {
                    "attributes" : {
                        "POSITION" : 20,
                        "NORMAL" : 21,
                        "TEXCOORD_0" : 22
                    },
                    "indices" : 23,
                    "material" : 5
                },
                {
                    "attributes" : {
                        "POSITION" : 24,
                        "NORMAL" : 25,
                        "TEXCOORD_0" : 26
                    },
                    "indices" : 27,
                    "material" : 6
                },
                {
                    "attributes" : {
                        "POSITION" : 28,
                        "NORMAL" : 29,
                        "TEXCOORD_0" : 30
                    },
                    "indices" : 31,
                    "material" : 7
                },
                {
                    "attributes" : {
                        "POSITION" : 32,
                        "NORMAL" : 33,
                        "TEXCOORD_0" : 34
                    },
                    "indices" : 35,
                    "material" : 8
                },
                {
                    "attributes" : {
                        "POSITION" : 36,
                        "NORMAL" : 37,
                        "TEXCOORD_0" : 38
                    },
                    "indices" : 39,
                    "material" : 9
                },
                {
                    "attributes" : {
                        "POSITION" : 40,
                        "NORMAL" : 41,
                        "TEXCOORD_0" : 42
                    },
                    "indices" : 43,
                    "material" : 10
                },
                {
                    "attributes" : {
                        "POSITION" : 44,
                        "NORMAL" : 45,
                        "TEXCOORD_0" : 46
                    },
                    "indices" : 47
                }
            ]
        }
    ],
    "textures" : [
        {
            "source" : 0
        }
    ],
    "images" : [
        {
            "mimeType" : "image/png",
            "name" : "bleu_1",
            "uri" : "bleu_1.png"
        }
    ],
    "accessors" : [
        {
            "bufferView" : 0,
            "componentType" : 5126,
            "count" : 5928,
            "max" : [
                1.33320951461792,
                1.3179682493209839,
                24.737075805664062
            ],
            "min" : [
                -14.131921768188477,
                -1.3179675340652466,
                -1
            ],
            "type" : "VEC3"
        },
        {
            "bufferView" : 1,
            "componentType" : 5126,
            "count" : 5928,
            "type" : "VEC3"
        },
        {
            "bufferView" : 2,
            "componentType" : 5126,
            "count" : 5928,
            "type" : "VEC2"
        },
        {
            "bufferView" : 3,
            "componentType" : 5123,
            "count" : 10260,
            "type" : "SCALAR"
        },
        {
            "bufferView" : 4,
            "componentType" : 5126,
            "count" : 3008,
            "max" : [
                -0.39160871505737305,
                1.0953261852264404,
                23.820600509643555
            ],
            "min" : [
                -12.207435607910156,
                -1.1042900085449219,
                17.567419052124023
            ],
            "type" : "VEC3"
        },
        {
            "bufferView" : 5,
            "componentType" : 5126,
            "count" : 3008,
            "type" : "VEC3"
        },
        {
            "bufferView" : 6,
            "componentType" : 5126,
            "count" : 3008,
            "type" : "VEC2"
        },
        {
            "bufferView" : 7,
            "componentType" : 5123,
            "count" : 4764,
            "type" : "SCALAR"
        },
        {
            "bufferView" : 8,
            "componentType" : 5126,
            "count" : 108,
            "max" : [
                -6.711841106414795,
                0.6391710042953491,
                9.048534393310547
            ],
            "min" : [
                -9.640534400939941,
                -0.6391705274581909,
                -2.857050895690918
            ],
            "type" : "VEC3"
        },
        {
            "bufferView" : 9,
            "componentType" : 5126,
            "count" : 108,
            "type" : "VEC3"
        },
        {
            "bufferView" : 10,
            "componentType" : 5126,
            "count" : 108,
            "type" : "VEC2"
        },
        {
            "bufferView" : 11,
            "componentType" : 5123,
            "count" : 168,
            "type" : "SCALAR"
        },
        {
            "bufferView" : 12,
            "componentType" : 5126,
            "count" : 960,
            "max" : [
                1.8287371397018433,
                0.6554589867591858,
                25.565813064575195
            ],
            "min" : [
                -1.873713493347168,
                -0.6554589867591858,
                -2.0339081287384033
            ],
            "type" : "VEC3"
        },
        {
            "bufferView" : 13,
            "componentType" : 5126,
            "count" : 960,
            "type" : "VEC3"
        },
        {
            "bufferView" : 14,
            "componentType" : 5126,
            "count" : 960,
            "type" : "VEC2"
        },
        {
            "bufferView" : 15,
            "componentType" : 5123,
            "count" : 1512,
            "type" : "SCALAR"
        },
        {
            "bufferView" : 16,
            "componentType" : 5126,
            "count" : 3488,
            "max" : [
                1.2353544235229492,
                1.5911509990692139,
                22.107175827026367
            ],
            "min" : [
                -11.807049751281738,
                -1.5818548202514648,
                -3.7768726348876953
            ],
            "type" : "VEC3"
        },
        {
            "bufferView" : 17,
            "componentType" : 5126,
            "count" : 3488,
            "type" : "VEC3"
        },
        {
            "bufferView" : 18,
            "componentType" : 5126,
            "count" : 3488,
            "type" : "VEC2"
        },
        {
            "bufferView" : 19,
            "componentType" : 5123,
            "count" : 5442,
            "type" : "SCALAR"
        },
        {
            "bufferView" : 20,
            "componentType" : 5126,
            "count" : 32,
            "max" : [
                -9.405738830566406,
                0.3896721303462982,
                21.338659286499023
            ],
            "min" : [
                -11.560806274414062,
                -0.38967153429985046,
                21.338659286499023
            ],
            "type" : "VEC3"
        },
        {
            "bufferView" : 21,
            "componentType" : 5126,
            "count" : 32,
            "type" : "VEC3"
        },
        {
            "bufferView" : 22,
            "componentType" : 5126,
            "count" : 32,
            "type" : "VEC2"
        },
        {
            "bufferView" : 23,
            "componentType" : 5123,
            "count" : 90,
            "type" : "SCALAR"
        },
        {
            "bufferView" : 24,
            "componentType" : 5126,
            "count" : 27816,
            "max" : [
                0.3179289698600769,
                2.188992977142334,
                17.369596481323242
            ],
            "min" : [
                -21.5905818939209,
                -2.192110538482666,
                2.8384697437286377
            ],
            "type" : "VEC3"
        },
        {
            "bufferView" : 25,
            "componentType" : 5126,
            "count" : 27816,
            "type" : "VEC3"
        },
        {
            "bufferView" : 26,
            "componentType" : 5126,
            "count" : 27816,
            "type" : "VEC2"
        },
        {
            "bufferView" : 27,
            "componentType" : 5123,
            "count" : 41040,
            "type" : "SCALAR"
        },
        {
            "bufferView" : 28,
            "componentType" : 5126,
            "count" : 256,
            "max" : [
                4.127203941345215,
                0.4545147120952606,
                28.080524444580078
            ],
            "min" : [
                -3.9359724521636963,
                -0.4546371102333069,
                20.01734733581543
            ],
            "type" : "VEC3"
        },
        {
            "bufferView" : 29,
            "componentType" : 5126,
            "count" : 256,
            "type" : "VEC3"
        },
        {
            "bufferView" : 30,
            "componentType" : 5126,
            "count" : 256,
            "type" : "VEC2"
        },
        {
            "bufferView" : 31,
            "componentType" : 5123,
            "count" : 384,
            "type" : "SCALAR"
        },
        {
            "bufferView" : 32,
            "componentType" : 5126,
            "count" : 2970,
            "max" : [
                5.716454029083252,
                1.201385498046875,
                29.66977310180664
            ],
            "min" : [
                -7.653061866760254,
                -1.1980634927749634,
                -6.966030120849609
            ],
            "type" : "VEC3"
        },
        {
            "bufferView" : 33,
            "componentType" : 5126,
            "count" : 2970,
            "type" : "VEC3"
        },
        {
            "bufferView" : 34,
            "componentType" : 5126,
            "count" : 2970,
            "type" : "VEC2"
        },
        {
            "bufferView" : 35,
            "componentType" : 5123,
            "count" : 4164,
            "type" : "SCALAR"
        },
        {
            "bufferView" : 36,
            "componentType" : 5126,
            "count" : 768,
            "max" : [
                4.586122035980225,
                0.32333463430404663,
                28.31584930419922
            ],
            "min" : [
                -4.607901096343994,
                -0.32333463430404663,
                -4.61524772644043
            ],
            "type" : "VEC3"
        },
        {
            "bufferView" : 37,
            "componentType" : 5126,
            "count" : 768,
            "type" : "VEC3"
        },
        {
            "bufferView" : 38,
            "componentType" : 5126,
            "count" : 768,
            "type" : "VEC2"
        },
        {
            "bufferView" : 39,
            "componentType" : 5123,
            "count" : 1152,
            "type" : "SCALAR"
        },
        {
            "bufferView" : 40,
            "componentType" : 5126,
            "count" : 1024,
            "max" : [
                4.127203941345215,
                0.4545147120952606,
                4.343449592590332
            ],
            "min" : [
                -3.9359724521636963,
                -0.4546371102333069,
                -3.719727039337158
            ],
            "type" : "VEC3"
        },
        {
            "bufferView" : 41,
            "componentType" : 5126,
            "count" : 1024,
            "type" : "VEC3"
        },
        {
            "bufferView" : 42,
            "componentType" : 5126,
            "count" : 1024,
            "type" : "VEC2"
        },
        {
            "bufferView" : 43,
            "componentType" : 5123,
            "count" : 1524,
            "type" : "SCALAR"
        },
        {
            "bufferView" : 44,
            "componentType" : 5126,
            "count" : 1160,
            "max" : [
                -13.27352237701416,
                2.002027988433838,
                16.88833999633789
            ],
            "min" : [
                -13.913233757019043,
                -2.0020275115966797,
                16.248628616333008
            ],
            "type" : "VEC3"
        },
        {
            "bufferView" : 45,
            "componentType" : 5126,
            "count" : 1160,
            "type" : "VEC3"
        },
        {
            "bufferView" : 46,
            "componentType" : 5126,
            "count" : 1160,
            "type" : "VEC2"
        },
        {
            "bufferView" : 47,
            "componentType" : 5123,
            "count" : 2100,
            "type" : "SCALAR"
        }
    ],
    "bufferViews" : [
        {
            "buffer" : 0,
            "byteLength" : 71136,
            "byteOffset" : 0
        },
        {
            "buffer" : 0,
            "byteLength" : 71136,
            "byteOffset" : 71136
        },
        {
            "buffer" : 0,
            "byteLength" : 47424,
            "byteOffset" : 142272
        },
        {
            "buffer" : 0,
            "byteLength" : 20520,
            "byteOffset" : 189696
        },
        {
            "buffer" : 0,
            "byteLength" : 36096,
            "byteOffset" : 210216
        },
        {
            "buffer" : 0,
            "byteLength" : 36096,
            "byteOffset" : 246312
        },
        {
            "buffer" : 0,
            "byteLength" : 24064,
            "byteOffset" : 282408
        },
        {
            "buffer" : 0,
            "byteLength" : 9528,
            "byteOffset" : 306472
        },
        {
            "buffer" : 0,
            "byteLength" : 1296,
            "byteOffset" : 316000
        },
        {
            "buffer" : 0,
            "byteLength" : 1296,
            "byteOffset" : 317296
        },
        {
            "buffer" : 0,
            "byteLength" : 864,
            "byteOffset" : 318592
        },
        {
            "buffer" : 0,
            "byteLength" : 336,
            "byteOffset" : 319456
        },
        {
            "buffer" : 0,
            "byteLength" : 11520,
            "byteOffset" : 319792
        },
        {
            "buffer" : 0,
            "byteLength" : 11520,
            "byteOffset" : 331312
        },
        {
            "buffer" : 0,
            "byteLength" : 7680,
            "byteOffset" : 342832
        },
        {
            "buffer" : 0,
            "byteLength" : 3024,
            "byteOffset" : 350512
        },
        {
            "buffer" : 0,
            "byteLength" : 41856,
            "byteOffset" : 353536
        },
        {
            "buffer" : 0,
            "byteLength" : 41856,
            "byteOffset" : 395392
        },
        {
            "buffer" : 0,
            "byteLength" : 27904,
            "byteOffset" : 437248
        },
        {
            "buffer" : 0,
            "byteLength" : 10884,
            "byteOffset" : 465152
        },
        {
            "buffer" : 0,
            "byteLength" : 384,
            "byteOffset" : 476036
        },
        {
            "buffer" : 0,
            "byteLength" : 384,
            "byteOffset" : 476420
        },
        {
            "buffer" : 0,
            "byteLength" : 256,
            "byteOffset" : 476804
        },
        {
            "buffer" : 0,
            "byteLength" : 180,
            "byteOffset" : 477060
        },
        {
            "buffer" : 0,
            "byteLength" : 333792,
            "byteOffset" : 477240
        },
        {
            "buffer" : 0,
            "byteLength" : 333792,
            "byteOffset" : 811032
        },
        {
            "buffer" : 0,
            "byteLength" : 222528,
            "byteOffset" : 1144824
        },
        {
            "buffer" : 0,
            "byteLength" : 82080,
            "byteOffset" : 1367352
        },
        {
            "buffer" : 0,
            "byteLength" : 3072,
            "byteOffset" : 1449432
        },
        {
            "buffer" : 0,
            "byteLength" : 3072,
            "byteOffset" : 1452504
        },
        {
            "buffer" : 0,
            "byteLength" : 2048,
            "byteOffset" : 1455576
        },
        {
            "buffer" : 0,
            "byteLength" : 768,
            "byteOffset" : 1457624
        },
        {
            "buffer" : 0,
            "byteLength" : 35640,
            "byteOffset" : 1458392
        },
        {
            "buffer" : 0,
            "byteLength" : 35640,
            "byteOffset" : 1494032
        },
        {
            "buffer" : 0,
            "byteLength" : 23760,
            "byteOffset" : 1529672
        },
        {
            "buffer" : 0,
            "byteLength" : 8328,
            "byteOffset" : 1553432
        },
        {
            "buffer" : 0,
            "byteLength" : 9216,
            "byteOffset" : 1561760
        },
        {
            "buffer" : 0,
            "byteLength" : 9216,
            "byteOffset" : 1570976
        },
        {
            "buffer" : 0,
            "byteLength" : 6144,
            "byteOffset" : 1580192
        },
        {
            "buffer" : 0,
            "byteLength" : 2304,
            "byteOffset" : 1586336
        },
        {
            "buffer" : 0,
            "byteLength" : 12288,
            "byteOffset" : 1588640
        },
        {
            "buffer" : 0,
            "byteLength" : 12288,
            "byteOffset" : 1600928
        },
        {
            "buffer" : 0,
            "byteLength" : 8192,
            "byteOffset" : 1613216
        },
        {
            "buffer" : 0,
            "byteLength" : 3048,
            "byteOffset" : 1621408
        },
        {
            "buffer" : 0,
            "byteLength" : 13920,
            "byteOffset" : 1624456
        },
        {
            "buffer" : 0,
            "byteLength" : 13920,
            "byteOffset" : 1638376
        },
        {
            "buffer" : 0,
            "byteLength" : 9280,
            "byteOffset" : 1652296
        },
        {
            "buffer" : 0,
            "byteLength" : 4200,
            "byteOffset" : 1661576
        }
    ],
    "buffers" : [
        {
            "byteLength" : 1665776,
            "uri" : "moto.bin"
        }
    ]
}
