{
    "asset" : {
        "generator" : "Khronos glTF Blender I/O v1.0.5",
        "version" : "2.0"
    },
    "scene" : 0,
    "scenes" : [
        {
            "name" : "Scene",
            "nodes" : [
                0,
                1,
                2
            ]
        }
    ],
    "nodes" : [
        {
            "name" : "Camera",
            "rotation" : [
                0.483536034822464,
                0.33687159419059753,
                -0.20870360732078552,
                0.7804827094078064
            ],
            "translation" : [
                7.358891487121582,
                4.958309173583984,
                6.925790786743164
            ]
        },
        {
            "mesh" : 0,
            "name" : "Ballon",
            "translation" : [
                0.999969482421875,
                4.317501544952393,
                0.028805430978536606
            ]
        },
        {
            "mesh" : 1,
            "name" : "Nacelle",
            "translation" : [
                0.999969482421875,
                -1.7675061225891113,
                0.042837586253881454
            ]
        }
    ],
    "materials" : [
        {
            "doubleSided" : true,
            "name" : "team_color",
            "pbrMetallicRoughness" : {
                "baseColorTexture" : {
                    "index" : 0,
                    "texCoord" : 0
                },
                "metallicFactor" : 0,
                "roughnessFactor" : 0.5
            }
        },
        {
            "doubleSided" : true,
            "name" : "base_balloon",
            "pbrMetallicRoughness" : {
                "baseColorTexture" : {
                    "index" : 1,
                    "texCoord" : 0
                },
                "metallicFactor" : 0,
                "roughnessFactor" : 0.5
            }
        },
        {
            "doubleSided" : true,
            "name" : "Panier",
            "pbrMetallicRoughness" : {
                "baseColorTexture" : {
                    "index" : 2,
                    "texCoord" : 0
                },
                "metallicFactor" : 0,
                "roughnessFactor" : 0.5
            }
        },
        {
            "doubleSided" : true,
            "name" : "fer",
            "pbrMetallicRoughness" : {
                "baseColorTexture" : {
                    "index" : 3,
                    "texCoord" : 0
                },
                "metallicFactor" : 0.49166667461395264,
                "roughnessFactor" : 0.5
            }
        }
    ],
    "meshes" : [
        {
            "name" : "Sphere",
            "primitives" : [
                {
                    "attributes" : {
                        "POSITION" : 0,
                        "NORMAL" : 1,
                        "TEXCOORD_0" : 2
                    },
                    "indices" : 3,
                    "material" : 0
                },
                {
                    "attributes" : {
                        "POSITION" : 4,
                        "NORMAL" : 5,
                        "TEXCOORD_0" : 6
                    },
                    "indices" : 7,
                    "material" : 1
                }
            ]
        },
        {
            "name" : "Cube.001",
            "primitives" : [
                {
                    "attributes" : {
                        "POSITION" : 8,
                        "NORMAL" : 9,
                        "TEXCOORD_0" : 10
                    },
                    "indices" : 11,
                    "material" : 2
                },
                {
                    "attributes" : {
                        "POSITION" : 12,
                        "NORMAL" : 13,
                        "TEXCOORD_0" : 14
                    },
                    "indices" : 15,
                    "material" : 3
                },
                {
                    "attributes" : {
                        "POSITION" : 16,
                        "NORMAL" : 17,
                        "TEXCOORD_0" : 18
                    },
                    "indices" : 19,
                    "material" : 0
                }
            ]
        }
    ],
    "textures" : [
        {
            "source" : 0
        },
        {
            "source" : 1
        },
        {
            "source" : 2
        },
        {
            "source" : 3
        }
    ],
    "images" : [
        {
            "mimeType" : "image/png",
            "name" : "rouge",
            "uri" : "rouge.png"
        },
        {
            "mimeType" : "image/png",
            "name" : "blanc",
            "uri" : "blanc.png"
        },
        {
            "mimeType" : "image/png",
            "name" : "orange",
            "uri" : "orange.png"
        },
        {
            "mimeType" : "image/png",
            "name" : "gris",
            "uri" : "gris.png"
        }
    ],
    "accessors" : [
        {
            "bufferView" : 0,
            "componentType" : 5126,
            "count" : 990,
            "max" : [
                1.670137643814087,
                -1.3516595363616943,
                1.6984902620315552
            ],
            "min" : [
                -1.6701372861862183,
                -5.758583068847656,
                -1.6417852640151978
            ],
            "type" : "VEC3"
        },
        {
            "bufferView" : 1,
            "componentType" : 5126,
            "count" : 990,
            "type" : "VEC3"
        },
        {
            "bufferView" : 2,
            "componentType" : 5126,
            "count" : 990,
            "type" : "VEC2"
        },
        {
            "bufferView" : 3,
            "componentType" : 5123,
            "count" : 1440,
            "type" : "SCALAR"
        },
        {
            "bufferView" : 4,
            "componentType" : 5126,
            "count" : 1002,
            "max" : [
                1.670137643814087,
                -1.3516595363616943,
                1.6984902620315552
            ],
            "min" : [
                -1.6701372861862183,
                -4.757373809814453,
                -1.6417852640151978
            ],
            "type" : "VEC3"
        },
        {
            "bufferView" : 5,
            "componentType" : 5126,
            "count" : 1002,
            "type" : "VEC3"
        },
        {
            "bufferView" : 6,
            "componentType" : 5126,
            "count" : 1002,
            "type" : "VEC2"
        },
        {
            "bufferView" : 7,
            "componentType" : 5123,
            "count" : 1452,
            "type" : "SCALAR"
        },
        {
            "bufferView" : 8,
            "componentType" : 5126,
            "count" : 42,
            "max" : [
                0.44374459981918335,
                0.34389472007751465,
                0.592504620552063
            ],
            "min" : [
                0,
                -0.6621154546737671,
                -0.4915733337402344
            ],
            "type" : "VEC3"
        },
        {
            "bufferView" : 9,
            "componentType" : 5126,
            "count" : 42,
            "type" : "VEC3"
        },
        {
            "bufferView" : 10,
            "componentType" : 5126,
            "count" : 42,
            "type" : "VEC2"
        },
        {
            "bufferView" : 11,
            "componentType" : 5123,
            "count" : 72,
            "type" : "SCALAR"
        },
        {
            "bufferView" : 12,
            "componentType" : 5126,
            "count" : 572,
            "max" : [
                0.4283426105976105,
                1.0319221019744873,
                0.562133252620697
            ],
            "min" : [
                -0.08251085877418518,
                0.2950560748577118,
                -0.4497988224029541
            ],
            "type" : "VEC3"
        },
        {
            "bufferView" : 13,
            "componentType" : 5126,
            "count" : 572,
            "type" : "VEC3"
        },
        {
            "bufferView" : 14,
            "componentType" : 5126,
            "count" : 572,
            "type" : "VEC2"
        },
        {
            "bufferView" : 15,
            "componentType" : 5123,
            "count" : 858,
            "type" : "SCALAR"
        },
        {
            "bufferView" : 16,
            "componentType" : 5126,
            "count" : 92,
            "max" : [
                0.48399248719215393,
                0.36435335874557495,
                0.6235112547874451
            ],
            "min" : [
                0,
                -0.6621154546737671,
                -0.5305566191673279
            ],
            "type" : "VEC3"
        },
        {
            "bufferView" : 17,
            "componentType" : 5126,
            "count" : 92,
            "type" : "VEC3"
        },
        {
            "bufferView" : 18,
            "componentType" : 5126,
            "count" : 92,
            "type" : "VEC2"
        },
        {
            "bufferView" : 19,
            "componentType" : 5123,
            "count" : 144,
            "type" : "SCALAR"
        }
    ],
    "bufferViews" : [
        {
            "buffer" : 0,
            "byteLength" : 11880,
            "byteOffset" : 0
        },
        {
            "buffer" : 0,
            "byteLength" : 11880,
            "byteOffset" : 11880
        },
        {
            "buffer" : 0,
            "byteLength" : 7920,
            "byteOffset" : 23760
        },
        {
            "buffer" : 0,
            "byteLength" : 2880,
            "byteOffset" : 31680
        },
        {
            "buffer" : 0,
            "byteLength" : 12024,
            "byteOffset" : 34560
        },
        {
            "buffer" : 0,
            "byteLength" : 12024,
            "byteOffset" : 46584
        },
        {
            "buffer" : 0,
            "byteLength" : 8016,
            "byteOffset" : 58608
        },
        {
            "buffer" : 0,
            "byteLength" : 2904,
            "byteOffset" : 66624
        },
        {
            "buffer" : 0,
            "byteLength" : 504,
            "byteOffset" : 69528
        },
        {
            "buffer" : 0,
            "byteLength" : 504,
            "byteOffset" : 70032
        },
        {
            "buffer" : 0,
            "byteLength" : 336,
            "byteOffset" : 70536
        },
        {
            "buffer" : 0,
            "byteLength" : 144,
            "byteOffset" : 70872
        },
        {
            "buffer" : 0,
            "byteLength" : 6864,
            "byteOffset" : 71016
        },
        {
            "buffer" : 0,
            "byteLength" : 6864,
            "byteOffset" : 77880
        },
        {
            "buffer" : 0,
            "byteLength" : 4576,
            "byteOffset" : 84744
        },
        {
            "buffer" : 0,
            "byteLength" : 1716,
            "byteOffset" : 89320
        },
        {
            "buffer" : 0,
            "byteLength" : 1104,
            "byteOffset" : 91036
        },
        {
            "buffer" : 0,
            "byteLength" : 1104,
            "byteOffset" : 92140
        },
        {
            "buffer" : 0,
            "byteLength" : 736,
            "byteOffset" : 93244
        },
        {
            "buffer" : 0,
            "byteLength" : 288,
            "byteOffset" : 93980
        }
    ],
    "buffers" : [
        {
            "byteLength" : 94268,
            "uri" : "montgolfiere.bin"
        }
    ]
}
