{
    "asset" : {
        "generator" : "Khronos glTF Blender I/O v1.1.45",
        "version" : "2.0"
    },
    "scene" : 0,
    "scenes" : [
        {
            "name" : "Scene",
            "nodes" : [
                0
            ]
        }
    ],
    "nodes" : [
        {
            "mesh" : 0,
            "name" : "cheminee_Cube.001",
            "rotation" : [
                1,
                0,
                0,
                -1.3435887069590535e-07
            ],
            "scale" : [
                0.0911860466003418,
                0.0911860466003418,
                0.0911860466003418
            ]
        }
    ],
    "materials" : [
        {
            "doubleSided" : true,
            "emissiveFactor" : [
                0,
                0,
                0
            ],
            "name" : "Material.003",
            "pbrMetallicRoughness" : {
                "baseColorTexture" : {
                    "index" : 0,
                    "texCoord" : 0
                },
                "metallicFactor" : 0,
                "roughnessFactor" : 0.5
            }
        },
        {
            "doubleSided" : true,
            "emissiveFactor" : [
                0,
                0,
                0
            ],
            "name" : "Material.002",
            "pbrMetallicRoughness" : {
                "baseColorTexture" : {
                    "index" : 1,
                    "texCoord" : 0
                },
                "metallicFactor" : 0,
                "roughnessFactor" : 1
            }
        },
        {
            "doubleSided" : true,
            "emissiveFactor" : [
                0,
                0,
                0
            ],
            "name" : "windows",
            "pbrMetallicRoughness" : {
                "baseColorTexture" : {
                    "index" : 2,
                    "texCoord" : 0
                },
                "metallicFactor" : 0,
                "roughnessFactor" : 0.5
            }
        },
        {
            "doubleSided" : true,
            "emissiveFactor" : [
                0,
                0,
                0
            ],
            "name" : "Material.014",
            "pbrMetallicRoughness" : {
                "baseColorTexture" : {
                    "index" : 3,
                    "texCoord" : 0
                },
                "metallicFactor" : 0,
                "roughnessFactor" : 0.5
            }
        },
        {
            "doubleSided" : true,
            "emissiveFactor" : [
                0,
                0,
                0
            ],
            "name" : "Material.015",
            "pbrMetallicRoughness" : {
                "baseColorTexture" : {
                    "index" : 4,
                    "texCoord" : 0
                },
                "metallicFactor" : 0,
                "roughnessFactor" : 0.5
            }
        }
    ],
    "meshes" : [
        {
            "name" : "cheminee_Cube.001",
            "primitives" : [
                {
                    "attributes" : {
                        "POSITION" : 0,
                        "NORMAL" : 1,
                        "TEXCOORD_0" : 2
                    },
                    "indices" : 3,
                    "material" : 0
                },
                {
                    "attributes" : {
                        "POSITION" : 4,
                        "NORMAL" : 5,
                        "TEXCOORD_0" : 6
                    },
                    "indices" : 7,
                    "material" : 1
                },
                {
                    "attributes" : {
                        "POSITION" : 8,
                        "NORMAL" : 9,
                        "TEXCOORD_0" : 10
                    },
                    "indices" : 11,
                    "material" : 2
                },
                {
                    "attributes" : {
                        "POSITION" : 12,
                        "NORMAL" : 13,
                        "TEXCOORD_0" : 14
                    },
                    "indices" : 15,
                    "material" : 3
                },
                {
                    "attributes" : {
                        "POSITION" : 16,
                        "NORMAL" : 17,
                        "TEXCOORD_0" : 18
                    },
                    "indices" : 19,
                    "material" : 4
                }
            ]
        }
    ],
    "textures" : [
        {
            "source" : 0
        },
        {
            "source" : 1
        },
        {
            "source" : 2
        },
        {
            "source" : 3
        },
        {
            "source" : 4
        }
    ],
    "images" : [
        {
            "mimeType" : "image/png",
            "name" : "tin",
            "uri" : "tin.png"
        },
        {
            "mimeType" : "image/png",
            "name" : "brun.png",
            "uri" : "brun_png.png"
        },
        {
            "mimeType" : "image/png",
            "name" : "ocean",
            "uri" : "ocean.png"
        },
        {
            "mimeType" : "image/png",
            "name" : "spring",
            "uri" : "spring.png"
        },
        {
            "mimeType" : "image/png",
            "name" : "gris.png",
            "uri" : "gris_png.png"
        }
    ],
    "accessors" : [
        {
            "bufferView" : 0,
            "componentType" : 5126,
            "count" : 738,
            "max" : [
                0.46819332242012024,
                -0.21399496495723724,
                0.7225226759910583
            ],
            "min" : [
                -0.6707987189292908,
                -2.4649178981781006,
                -0.7314893007278442
            ],
            "type" : "VEC3"
        },
        {
            "bufferView" : 1,
            "componentType" : 5126,
            "count" : 738,
            "type" : "VEC3"
        },
        {
            "bufferView" : 2,
            "componentType" : 5126,
            "count" : 738,
            "type" : "VEC2"
        },
        {
            "bufferView" : 3,
            "componentType" : 5123,
            "count" : 1092,
            "type" : "SCALAR"
        },
        {
            "bufferView" : 4,
            "componentType" : 5126,
            "count" : 3958,
            "max" : [
                0.513178288936615,
                -0.1858009546995163,
                0.802307665348053
            ],
            "min" : [
                -0.7183526754379272,
                -2.305643081665039,
                -0.8182643055915833
            ],
            "type" : "VEC3"
        },
        {
            "bufferView" : 5,
            "componentType" : 5126,
            "count" : 3958,
            "type" : "VEC3"
        },
        {
            "bufferView" : 6,
            "componentType" : 5126,
            "count" : 3958,
            "type" : "VEC2"
        },
        {
            "bufferView" : 7,
            "componentType" : 5123,
            "count" : 4689,
            "type" : "SCALAR"
        },
        {
            "bufferView" : 8,
            "componentType" : 5126,
            "count" : 126,
            "max" : [
                0.498359352350235,
                -0.4462599754333496,
                0.7726506590843201
            ],
            "min" : [
                -0.6936116814613342,
                -1.8761039972305298,
                -0.7905012965202332
            ],
            "type" : "VEC3"
        },
        {
            "bufferView" : 9,
            "componentType" : 5126,
            "count" : 126,
            "type" : "VEC3"
        },
        {
            "bufferView" : 10,
            "componentType" : 5126,
            "count" : 126,
            "type" : "VEC2"
        },
        {
            "bufferView" : 11,
            "componentType" : 5123,
            "count" : 144,
            "type" : "SCALAR"
        },
        {
            "bufferView" : 12,
            "componentType" : 5126,
            "count" : 377,
            "max" : [
                0.5001373291015625,
                -0.1946369856595993,
                0.7650597095489502
            ],
            "min" : [
                -0.687244713306427,
                -2.2211380004882812,
                -0.7810713052749634
            ],
            "type" : "VEC3"
        },
        {
            "bufferView" : 13,
            "componentType" : 5126,
            "count" : 377,
            "type" : "VEC3"
        },
        {
            "bufferView" : 14,
            "componentType" : 5126,
            "count" : 377,
            "type" : "VEC2"
        },
        {
            "bufferView" : 15,
            "componentType" : 5123,
            "count" : 489,
            "type" : "SCALAR"
        },
        {
            "bufferView" : 16,
            "componentType" : 5126,
            "count" : 91,
            "max" : [
                0.47349733114242554,
                -0.11617998778820038,
                0.7365027070045471
            ],
            "min" : [
                -0.6653937101364136,
                -0.1946369856595993,
                -0.7507762908935547
            ],
            "type" : "VEC3"
        },
        {
            "bufferView" : 17,
            "componentType" : 5126,
            "count" : 91,
            "type" : "VEC3"
        },
        {
            "bufferView" : 18,
            "componentType" : 5126,
            "count" : 91,
            "type" : "VEC2"
        },
        {
            "bufferView" : 19,
            "componentType" : 5123,
            "count" : 198,
            "type" : "SCALAR"
        }
    ],
    "bufferViews" : [
        {
            "buffer" : 0,
            "byteLength" : 8856,
            "byteOffset" : 0
        },
        {
            "buffer" : 0,
            "byteLength" : 8856,
            "byteOffset" : 8856
        },
        {
            "buffer" : 0,
            "byteLength" : 5904,
            "byteOffset" : 17712
        },
        {
            "buffer" : 0,
            "byteLength" : 2184,
            "byteOffset" : 23616
        },
        {
            "buffer" : 0,
            "byteLength" : 47496,
            "byteOffset" : 25800
        },
        {
            "buffer" : 0,
            "byteLength" : 47496,
            "byteOffset" : 73296
        },
        {
            "buffer" : 0,
            "byteLength" : 31664,
            "byteOffset" : 120792
        },
        {
            "buffer" : 0,
            "byteLength" : 9378,
            "byteOffset" : 152456
        },
        {
            "buffer" : 0,
            "byteLength" : 1512,
            "byteOffset" : 161836
        },
        {
            "buffer" : 0,
            "byteLength" : 1512,
            "byteOffset" : 163348
        },
        {
            "buffer" : 0,
            "byteLength" : 1008,
            "byteOffset" : 164860
        },
        {
            "buffer" : 0,
            "byteLength" : 288,
            "byteOffset" : 165868
        },
        {
            "buffer" : 0,
            "byteLength" : 4524,
            "byteOffset" : 166156
        },
        {
            "buffer" : 0,
            "byteLength" : 4524,
            "byteOffset" : 170680
        },
        {
            "buffer" : 0,
            "byteLength" : 3016,
            "byteOffset" : 175204
        },
        {
            "buffer" : 0,
            "byteLength" : 978,
            "byteOffset" : 178220
        },
        {
            "buffer" : 0,
            "byteLength" : 1092,
            "byteOffset" : 179200
        },
        {
            "buffer" : 0,
            "byteLength" : 1092,
            "byteOffset" : 180292
        },
        {
            "buffer" : 0,
            "byteLength" : 728,
            "byteOffset" : 181384
        },
        {
            "buffer" : 0,
            "byteLength" : 396,
            "byteOffset" : 182112
        }
    ],
    "buffers" : [
        {
            "byteLength" : 182508,
            "uri" : "maison.bin"
        }
    ]
}
